<svg width="121" height="60" viewBox="0 0 121 60" fill="none" xmlns="http://www.w3.org/2000/svg">
<path fill-rule="evenodd" clip-rule="evenodd" d="M58.2246 0H0V60H58.2246V0ZM61.9099 0V60H120.255V0H118.505H61.9099ZM116.755 3.59995V56.3997H65.4103V3.59995H116.755Z" fill="#0055A6"/>
<path fill-rule="evenodd" clip-rule="evenodd" d="M31.4827 42.2728C30.8428 41.4696 30.5179 40.4154 30.5179 39.1408C30.5179 37.8322 30.8275 36.7784 31.4381 36.0092C32.1034 35.1667 33.0839 34.7399 34.3526 34.7399H34.4498V32.5567H34.3526C32.3735 32.5567 30.8459 33.1941 29.8125 34.4502C28.8723 35.5865 28.3956 37.1702 28.3956 39.1579C28.3956 41.0779 28.9131 42.657 29.9334 43.8504C31.0064 45.1051 32.5033 45.7419 34.3827 45.7419H34.4799V43.5592H34.3827C33.1433 43.5592 32.1672 43.1265 31.4827 42.2728ZM23.9436 42.2728C23.3037 41.4702 22.9788 40.4169 22.9788 39.1408C22.9788 37.8322 23.2884 36.7784 23.8988 36.0092C24.5638 35.1667 25.5444 34.7399 26.8135 34.7399H26.9107V32.5567H26.8135C24.8346 32.5567 23.3068 33.1941 22.2729 34.4502C21.333 35.5865 20.8563 37.1702 20.8563 39.1579C20.8563 41.0779 21.3738 42.657 22.3941 43.8504C23.4673 45.1051 24.9642 45.7419 26.8436 45.7419H26.9408V43.5592H26.8436C25.604 43.5592 24.6281 43.1265 23.9436 42.2728ZM30.8728 21.0137C30.8728 21.2986 30.8728 27.0903 30.8728 27.0903H33.1237V14.5095H30.8728C30.8728 14.5095 30.8728 18.6117 30.8728 18.8911C30.64 18.8911 29.6478 18.8911 29.6478 18.8911C29.1424 18.8911 28.7655 18.7727 28.5277 18.5396C28.3554 18.3744 28.2722 18.1539 28.2722 17.8642V14.5095H26.0214V18.1023C26.0214 18.9291 26.3396 19.6294 26.9669 20.1845C27.5869 20.7345 28.3477 21.0137 29.2283 21.0137C29.2283 21.0137 30.6271 21.0137 30.8728 21.0137ZM52.4073 32.2577L52.2488 32.4277C52.2488 32.4277 48.0622 36.9237 47.7514 37.2578C47.7514 36.8133 47.7514 32.8576 47.7514 32.8576H45.7844V45.3667H47.7514C47.7514 45.3667 47.7514 40.3069 47.7514 40.2283C47.8004 40.1745 50.3193 37.4315 50.6029 37.1227C50.6185 37.5732 50.8879 45.3667 50.8879 45.3667H52.8921L52.4073 32.2577ZM37.6818 27.0903H39.9323C39.9323 27.0903 39.9323 16.8916 39.9323 16.6006C40.1806 16.6006 41.8293 16.6006 41.8293 16.6006V14.5095H35.8159V16.6006C35.8159 16.6006 37.4342 16.6006 37.6818 16.6006C37.6818 16.8916 37.6818 27.0903 37.6818 27.0903ZM42.8658 32.4277C42.8658 32.4277 38.6793 36.9237 38.3683 37.2578C38.3683 36.8133 38.3683 32.8576 38.3683 32.8576H36.4013V45.3667H38.3683C38.3683 45.3667 38.3683 40.3069 38.3683 40.2283C38.4177 40.1745 40.9363 37.4315 41.22 37.1227C41.2358 37.5732 41.505 45.3667 41.505 45.3667H43.509L43.0244 32.2577L42.8658 32.4277ZM46.9143 16.6007C47.1205 16.6007 47.7289 16.6007 47.7289 16.6007C48.3087 16.6007 48.7082 16.7796 48.9495 17.1482C49.1436 17.4542 49.2816 18.047 49.3703 18.8587H46.8597C46.866 18.6041 46.9084 16.8437 46.9143 16.6007ZM46.8198 20.9498C47.0642 20.95 49.4003 20.9515 49.6291 20.9515C49.6556 21.208 50.2605 27.0914 50.2605 27.0914L52.5276 27.0901L51.4888 17.8936C51.4898 16.6879 51.1277 15.7777 50.4136 15.2053C49.8452 14.7438 49.067 14.5095 48.1 14.5095H44.7654L44.3515 27.0903H46.6021C46.6021 27.0903 46.8098 21.2252 46.8198 20.9498ZM7.58854 16.6H10.3762C10.3762 16.891 10.3762 27.0896 10.3762 27.0896H12.6269V14.5088H5.33823V27.0896H7.58854C7.58854 27.0896 7.58854 16.891 7.58854 16.6ZM8.6409 39.6863C8.47968 40.0069 8.29152 40.1683 8.0816 40.1683C7.87795 40.1683 7.70676 40.0298 7.55864 39.7434C7.40166 39.4394 7.32252 38.995 7.32252 38.4209C7.32252 38.4209 7.32252 34.9289 7.32252 34.7399C7.36366 34.7399 7.40534 34.7399 7.40534 34.7399C7.87039 34.7399 8.22512 35.0034 8.49038 35.5461C8.76284 36.1048 8.901 36.9993 8.901 38.205C8.901 38.8449 8.81357 39.3433 8.6409 39.6863ZM7.40999 32.8763H5.32422V45.3579H7.32255C7.32255 45.3579 7.32255 42.0794 7.32255 41.7302C7.70956 42.0794 8.13144 42.2877 8.59353 42.2877C9.25834 42.2877 9.8123 41.9261 10.2403 41.2132C10.7188 40.4125 10.9613 39.2257 10.9613 37.6855C10.9613 36.614 10.7669 35.654 10.3838 34.8337C9.78039 33.5353 8.77984 32.8763 7.40999 32.8763ZM20.8009 24.0128C20.5076 24.8272 20.0958 25.2231 19.5411 25.2231C19.0097 25.2231 18.6087 24.8219 18.3154 23.9961C18.0088 23.1333 17.8535 22.0383 17.8535 20.7423C17.8535 19.4123 18.006 18.3179 18.3069 17.4894C18.5939 16.697 18.9977 16.3119 19.5411 16.3119C20.151 16.3119 20.585 16.7018 20.868 17.5044C21.1301 18.2426 21.2628 19.3203 21.2628 20.7078C21.2628 22.0482 21.1076 23.1601 20.8009 24.0128ZM22.5385 25.4349C23.2061 24.2497 23.5449 22.6594 23.5449 20.7077C23.5449 18.7788 23.1944 17.1993 22.5042 16.0133C21.7988 14.803 20.8002 14.1895 19.5368 14.1895C18.3376 14.1895 17.3839 14.8069 16.7021 16.0247C16.0345 17.2135 15.6959 18.7951 15.6959 20.7249C15.6959 22.7218 16.0201 24.3344 16.6593 25.5186C17.3133 26.7314 18.2815 27.3464 19.5368 27.3464C20.8128 27.3464 21.8227 26.7035 22.5385 25.4349ZM16.9028 42.3514C16.6389 43.1743 16.2513 43.5911 15.7518 43.5911C15.272 43.5911 14.8942 43.1681 14.6298 42.3339C14.3552 41.4658 14.2157 40.3642 14.2157 39.0592C14.2157 37.7215 14.3526 36.6198 14.6226 35.7855C14.8811 34.9852 15.2609 34.5794 15.7518 34.5794C16.3081 34.5794 16.7047 34.9797 16.963 35.8018C17.1983 36.546 17.3175 37.6298 17.3175 39.0253C17.3175 40.3739 17.1782 41.4926 16.9028 42.3514ZM18.3893 34.3601C17.763 33.1636 16.8766 32.5567 15.7542 32.5567C14.6896 32.5567 13.8431 33.167 13.2378 34.3713C12.6431 35.5543 12.3413 37.1256 12.3413 39.0427C12.3413 41.0282 12.6302 42.6319 13.1997 43.8083C13.7793 45.0065 14.6387 45.6145 15.7542 45.6145C16.8873 45.6145 17.7844 44.9784 18.4201 43.7233C19.0144 42.5473 19.3158 40.9667 19.3158 39.0256C19.3158 37.1074 19.0043 35.5376 18.3894 34.3601H18.3893Z" fill="#FFFFFE"/>
<path fill-rule="evenodd" clip-rule="evenodd" d="M90.8104 13.5812C90.694 13.585 90.5787 13.5926 90.4673 13.6044C90.4007 13.084 90.3206 12.5593 90.2177 12.0107C90.115 11.4617 89.927 10.9316 89.927 10.9316C90.169 11.0009 90.3157 11.2748 90.4302 11.6552C90.5455 12.0363 90.7401 13.0023 90.8104 13.5812ZM76.6161 18.7887C76.6114 18.6373 76.6144 18.4939 76.6179 18.3664V18.3285C76.0331 17.0687 75.0911 15.519 74.3543 14.4257C73.7559 13.5341 72.3813 11.8956 71.4279 11.0638C71.2036 12.0922 70.8529 14.0091 71.6967 15.6616C72.5406 17.3162 74.6258 19.6898 76.7275 20.8356L76.9638 20.9365C77.2196 21.0483 77.4748 21.1705 77.6974 21.2822C77.4196 20.9764 77.1853 20.6579 77.0071 20.3356C76.8798 20.1056 76.7906 19.864 76.7308 19.6261L76.6565 19.3675C76.0911 18.9802 75.5152 18.4089 75.0348 17.9324C74.8663 17.7652 74.7095 17.6097 74.569 17.4779C74.0263 16.97 73.2623 15.9517 72.8349 14.675C73.3429 15.0111 73.7972 15.4279 74.3377 16.1173C75.0022 16.9642 75.6937 17.8737 76.307 18.6803L76.6399 19.1179L76.6161 18.7887ZM76.2731 22.3782C76.1783 22.2372 75.9938 21.9629 75.927 21.842C75.0694 21.4153 74.7436 21.2297 74.3654 21.0143L74.3654 21.0143L74.3653 21.0142L74.3646 21.0139C74.2872 20.9698 74.2077 20.9244 74.1208 20.8755C73.547 20.5505 72.8458 20.0649 72.1587 19.506C71.564 19.0255 70.8253 18.0356 70.8253 18.0356C71.6259 18.3181 72.4326 18.9079 72.9712 19.3262C73.6702 19.8676 74.7945 20.7425 75.741 21.5247L75.394 20.4953C74.2913 19.6026 72.6942 18.0057 72.1662 17.4629C71.6388 16.9204 69.5985 15.1117 68.661 14.9158C68.661 14.9158 68.3854 16.9649 69.3531 18.3373C70.3203 19.7084 73.4496 21.9223 76.2963 22.4127L76.2731 22.3782ZM79.6064 19.4103C80.0381 20.3911 80.7468 21.3956 82.6739 22.7506C83.1052 23.0543 83.5815 23.6857 83.2183 24.5733C83.1564 24.7245 83.0853 24.8865 83.012 25.0537C82.6545 25.8684 82.243 26.8061 82.5821 27.2127C82.991 27.7044 84.4444 27.9607 85.6258 27.4705C85.6258 27.4705 85.8759 28.241 86.3081 28.7312C86.3081 28.7312 86.1035 29.1524 85.4223 28.9424C85.4223 28.9424 85.6723 29.5726 85.3315 30.25C85.3315 30.25 84.5367 30.1104 84.195 29.3614C84.195 29.3614 83.877 29.9469 83.2417 30.1557C83.2417 30.1557 82.7184 29.8765 82.8326 28.802C82.8326 28.802 82.4463 29.76 81.2646 29.9226C81.2646 29.9226 80.5835 29.0355 81.4695 27.843C81.4695 27.843 80.8326 28.4285 79.6747 28.1479C79.6747 28.1479 79.4922 27.5407 80.5378 26.6982C80.5378 26.6982 79.3554 26.6528 78.9018 25.6245C78.9018 25.6245 79.4015 24.9935 80.628 25.1344C80.628 25.1344 79.4922 24.8766 79.2434 23.4751C79.2434 23.4751 80.0608 22.9379 81.3565 23.8016C81.3565 23.8016 81.129 23.3581 80.5835 22.9145C80.0381 22.4704 79.3792 21.2315 79.6064 19.4103ZM84.3605 33.5013C84.1886 33.2667 84.0604 33.0333 83.9649 32.8059C83.9795 32.9284 83.9934 33.048 84.007 33.165C84.1824 34.6708 84.3059 35.7315 85.1336 36.7529C85.1336 36.7529 85.6723 36.0153 85.3246 34.2256C85.1748 34.1809 85.0077 34.109 84.844 33.9955C84.844 33.9955 85.0479 34.7217 84.9208 35.4547C84.9208 35.4547 84.598 35.2134 84.3605 33.5013ZM82.3973 32.6855C82.5054 32.8944 82.7106 33.1863 82.8164 33.3246C82.5587 35.1408 82.9793 35.4685 82.9793 35.4685C83.3986 34.6211 83.2577 33.4183 83.2577 33.4183C83.2774 33.3954 83.3009 33.3689 83.3269 33.3396C83.4403 33.2119 83.601 33.0309 83.701 32.8585C83.4958 36.6471 82.9159 37.0834 82.9159 37.0834C82.1126 36.3123 82.2995 33.9326 82.3847 32.8484L82.3973 32.6855ZM80.8001 35.3111C81.512 34.4348 81.7247 31.8107 81.7247 31.8107C81.823 31.7429 81.9213 31.6688 82.02 31.5878C82.0615 31.5536 82.1008 31.5187 82.1382 31.4821C82.1371 31.5777 82.1412 31.6762 82.15 31.7752C82.0475 33.3543 81.9265 34.9823 81.4469 35.7927C80.977 36.5863 80.1148 36.9987 80.1148 36.9987C79.3046 35.5175 80.2831 33.5284 81.1025 32.1472C81.203 32.1072 81.3048 32.0594 81.4087 32.0049C81.3446 32.2418 81.2678 32.4887 81.1896 32.7401C80.9166 33.6177 80.6262 34.551 80.8001 35.3111ZM78.8395 31.1348C78.8179 31.0622 78.7873 30.9256 78.7923 30.755C76.8692 32.8674 75.7548 33.2267 75.7548 33.2267C76.4114 31.8647 77.9532 30.9777 78.6687 30.566L78.6688 30.566C78.731 30.5302 78.787 30.498 78.8356 30.4693C78.8719 30.3341 78.9361 30.1899 79.0446 30.0467C79.0178 30.0507 78.993 30.0539 78.9684 30.057L78.9682 30.057L78.9657 30.0573C78.6251 30.0989 78.356 30.0372 78.1503 29.9386C77.3475 30.5401 76.2577 31.445 75.4049 32.4368C74.5536 33.4284 74.2459 34.3486 74.0924 35.5117C74.0924 35.5117 75.6849 35.4548 76.6923 34.017C77.6974 32.5798 78.1996 31.927 78.878 31.2409C78.8625 31.208 78.8523 31.1756 78.8441 31.1494L78.8395 31.1348ZM77.5288 29.3063L77.5958 29.1837C77.6174 29.1439 77.6412 29.1069 77.6672 29.0709C77.5672 29.111 77.428 29.1661 77.2611 29.2321L77.2611 29.2321C76.3363 29.5982 74.5639 30.2999 73.9249 30.6399C73.1708 31.043 72.078 31.9582 71.4853 33.8133C71.4853 33.8133 73.0586 33.9594 74.3582 32.8538C75.0055 32.3018 75.7061 31.6417 76.3261 31.0575L76.3262 31.0574L76.3262 31.0574C76.9504 30.4693 77.4929 29.9581 77.8173 29.7115C77.7526 29.6491 77.7031 29.5895 77.6672 29.541C77.6672 29.541 75.9092 31.143 74.0501 31.8337C74.0501 31.8337 74.448 31.0922 75.1826 30.5536C75.8666 30.0525 76.4194 29.8062 76.9919 29.5511L76.992 29.5511C77.1676 29.4729 77.3451 29.3938 77.5288 29.3063ZM76.2735 28.029C76.247 28.0883 76.2202 28.149 76.1957 28.2134C75.5598 28.3799 74.7229 28.6772 73.9616 29.0057C73.2623 29.3079 72.5936 29.7936 72.5936 29.7936C73.9457 29.7587 75.3093 29.2047 76.3279 28.7394C76.4713 28.8295 76.7463 28.9648 77.1361 28.9946C76.6478 29.1264 75.847 29.3814 73.2929 30.6179C70.7377 31.8555 69.3831 31.4249 69.3831 31.4249C70.3055 29.6164 71.8603 28.9688 72.719 28.6979C73.2778 28.5219 74.2853 28.3607 75.134 28.2249L75.134 28.2249L75.1341 28.2249C75.592 28.1516 76.0037 28.0857 76.2735 28.029ZM76.2595 26.9101C76.5098 27.0313 76.7018 27.0917 77.028 27.1275C76.8503 27.2444 76.6799 27.3963 76.5294 27.5978C75.6297 27.8647 74.0946 28.1565 71.5628 28.3447C69.0299 28.5325 67.6803 28.0529 67.6803 28.0529C68.5633 27.499 69.9695 26.9352 70.9218 26.7468C71.4372 26.6443 72.4076 26.6032 73.3626 26.5628H73.3627C74.1688 26.5286 74.9641 26.495 75.4654 26.4252C75.4781 26.4368 75.612 26.5493 75.8253 26.683C75.7067 26.694 75.5708 26.7051 75.4219 26.7173L75.4217 26.7173L75.4216 26.7173L75.4215 26.7173L75.4215 26.7173C74.4145 26.7996 72.8119 26.9306 71.9291 27.3897C71.9291 27.3897 73.7991 27.6469 76.2595 26.9101ZM76.5401 25.1875C76.3525 25.2603 76.1979 25.3364 76.0706 25.4144C73.2071 24.5762 71.1701 25.0139 71.1701 25.0139C72.0063 25.2994 74.3427 25.6735 75.7458 25.6646C75.6065 25.8001 75.5184 25.9344 75.4394 26.0547L75.4366 26.059C75.1178 26.0562 74.7679 26.0745 74.388 26.0944C73.3371 26.1493 72.0566 26.2163 70.5713 25.8837C68.5486 25.431 66.781 24.149 66.781 24.149C67.506 23.9557 68.9081 23.8411 70.8519 23.9724C73.2277 24.1334 74.8904 24.6629 76.1323 25.0585L76.1324 25.0585L76.1332 25.0588C76.2741 25.1036 76.4096 25.1468 76.5401 25.1875ZM76.0638 23.8637C76.0707 23.9001 76.2195 24.6432 77.0572 25.0554C76.1449 24.6439 74.7822 24.321 73.4122 23.9964L73.4122 23.9964C72.0823 23.6812 70.7455 23.3644 69.8071 22.9634C67.2304 21.8631 66.7617 20.4885 66.7617 20.4885C68.9901 20.4284 70.7929 20.9887 72.1814 21.4258C73.8082 21.9392 76.2845 22.8886 77.152 23.2864C76.827 23.3001 76.4713 23.3959 76.1712 23.6019C74.96 23.1244 74.3968 22.9235 73.2976 22.6065C72.4947 22.3756 71.8839 22.3161 71.3683 22.2659L71.2476 22.2541C71.2476 22.2541 72.01 22.7731 73.2673 23.1878C74.3073 23.5293 74.8553 23.6333 75.5965 23.7739C75.743 23.8017 75.897 23.8309 76.0638 23.8637ZM83.9542 30.0342C84.0407 29.9583 84.1152 29.8809 84.1776 29.8094L84.1779 29.8097C84.3103 29.9809 84.7477 30.5464 84.9632 31.1075C85.1283 31.5886 85.3019 32.2414 85.3895 32.6168C85.4764 32.9901 85.7354 33.7664 85.8922 34.0343C85.8922 34.0343 85.1986 34.1236 84.686 33.5082C84.1815 32.9019 84.0099 32.2947 83.9315 31.6688C83.8692 31.1794 83.8893 30.5025 83.9542 30.0342ZM83.1259 30.3841C83.1139 30.3778 82.9899 30.3051 82.861 30.128C82.7313 30.2784 82.5843 30.5426 82.4935 30.828C82.3264 31.3555 82.3746 31.8713 82.5105 32.3145C82.6406 32.7383 83.0934 33.2518 83.0934 33.2518C83.1105 33.2313 83.1289 33.2095 83.1485 33.1865C83.3177 32.9872 83.5703 32.6899 83.6998 32.2321C83.813 31.8338 83.7627 31.3508 83.7288 31.0246L83.7236 30.9742C83.6979 30.7293 83.6559 30.5893 83.557 30.301C83.4821 30.3397 83.4026 30.3725 83.3172 30.4015L83.2183 30.4338L83.1259 30.3841ZM81.2984 30.1772C81.7611 30.113 82.1138 29.9402 82.3776 29.7408L82.3872 29.7681C82.4457 29.933 82.5234 30.1519 82.46 30.4553C82.3916 30.7761 82.1765 31.1314 81.8655 31.3879C81.3986 31.7711 80.7714 32.1334 80.0804 32.0222C80.0804 32.0222 79.9218 31.4893 81.2984 30.1772ZM81.069 30.0816C81.0513 30.0587 80.8305 29.761 80.7746 29.2862L80.681 29.32C80.3514 29.4385 80.091 29.5322 79.5872 29.8781C78.7764 30.4364 79.1059 31.1375 79.1059 31.1375C80.1952 31.2936 80.7768 30.485 81.0033 30.1702C81.0301 30.133 81.0519 30.1026 81.069 30.0816ZM80.881 28.4055C80.5567 28.4897 80.1344 28.5225 79.6174 28.3969L79.4776 28.3637L79.4366 28.2237C79.1597 28.4562 78.8598 28.6027 78.5894 28.7348C78.2492 28.9011 77.9557 29.0445 77.8135 29.3077C77.8135 29.3077 78.1247 29.9028 78.9361 29.803C79.7463 29.7038 80.356 29.314 80.79 28.7543C80.8066 28.6684 80.8417 28.5128 80.881 28.4055ZM79.5917 27.4563L79.5917 27.4564C79.5523 27.5358 79.5167 27.6076 79.4768 27.6679C79.1093 28.2161 78.4645 28.5439 77.7251 28.6997C76.8537 28.8824 76.373 28.4618 76.373 28.4618C76.7552 27.2921 77.518 27.1109 78.2656 26.9652C78.8946 26.8427 79.3792 26.8502 79.9149 26.9447C79.7559 27.1254 79.6669 27.3048 79.5917 27.4563ZM79.1604 26.3985C78.9713 26.2314 78.8002 26.0136 78.6753 25.7305L78.6111 25.5852C77.9643 25.3128 77.2877 25.1736 76.6281 25.4268C75.9904 25.6725 75.8047 25.9546 75.6421 26.2017L75.6246 26.2283C75.6246 26.2283 76.3571 26.8585 77.2001 26.883C78.044 26.9076 78.8217 26.6586 79.1604 26.3985ZM79.7348 24.9171C79.5928 24.9469 79.4668 24.9865 79.3554 25.0305C78.944 25.1743 78.5657 25.2457 77.5496 24.9693C76.4685 24.6746 76.3091 23.8159 76.3091 23.8159C76.7861 23.4894 77.3991 23.4973 77.7088 23.6195C78.0195 23.7424 78.7275 23.7424 79.0276 23.6696C79.1645 24.2624 79.4473 24.6574 79.7348 24.9171ZM78.9668 23.3518L79.1093 23.2586C79.1282 23.2455 79.3706 23.0936 79.7838 23.0608C79.6976 22.9946 79.582 22.9011 79.4481 22.7927C79.0406 22.4631 78.4625 21.9953 78.0195 21.7378C77.3803 21.3682 76.3167 20.879 75.7764 20.8056C75.7764 20.8056 76.2833 22.1758 76.8742 22.7271C77.4866 23.3002 77.916 23.5128 78.9668 23.3518ZM79.4462 21.3373C79.5969 21.9001 79.8007 22.3761 80.0594 22.7229C78.7685 22.0891 77.7303 21.1229 77.2236 20.2082C76.636 19.1449 76.9463 17.8037 76.9463 17.8037C78.1147 18.1222 78.7116 19.153 78.878 19.4482C79.0169 19.693 79.2322 20.5188 79.3717 21.054L79.3717 21.054L79.3718 21.0543L79.3719 21.0549L79.3721 21.0554L79.3723 21.0564L79.3724 21.0566C79.4005 21.1644 79.4255 21.2604 79.4462 21.3373ZM86.5378 28.9652C86.6845 29.1135 86.7939 29.1977 87.0547 29.3319C87.0547 29.3319 87.4281 30.0634 86.9769 30.9462C86.5251 31.8299 86.144 32.7321 85.9617 33.2316C85.9617 33.2316 85.7184 33.1959 85.4497 31.8124C85.2832 30.9565 85.0768 30.6872 84.8592 30.4032L84.8592 30.4031C84.8385 30.3761 84.8177 30.349 84.7968 30.3212C85.0577 30.4579 85.2713 30.5001 85.2882 30.5023L85.4696 30.5338L85.5524 30.3678C85.7127 30.0497 85.7607 29.7424 85.7607 29.4878C85.7607 29.4036 85.7548 29.3252 85.747 29.2548C86.1659 29.2649 86.3893 29.0473 86.4747 28.9354C86.4777 28.9307 86.4809 28.9264 86.484 28.9223C86.488 28.917 86.4917 28.912 86.4945 28.9069L86.5378 28.9652ZM106.096 25.4144C105.967 25.3364 105.815 25.2603 105.626 25.1875C105.756 25.1468 105.892 25.1037 106.032 25.0589L106.034 25.0583L106.034 25.0583C107.276 24.6628 108.939 24.1334 111.315 23.9724C113.258 23.8411 114.659 23.9557 115.385 24.149C115.385 24.149 113.617 25.431 111.594 25.8837C110.109 26.2163 108.829 26.1493 107.778 26.0944C107.398 26.0745 107.048 26.0562 106.729 26.059L106.726 26.0535C106.647 25.9335 106.559 25.7997 106.421 25.6646C107.823 25.6735 110.16 25.2994 110.995 25.0139C110.995 25.0139 108.959 24.5762 106.096 25.4144ZM105.109 25.0554C105.946 24.6432 106.096 23.9001 106.101 23.8637C106.267 23.8312 106.42 23.8022 106.565 23.7746C107.309 23.6336 107.856 23.5299 108.899 23.1878C110.155 22.7731 110.918 22.2541 110.918 22.2541L110.798 22.2659C110.282 22.3161 109.671 22.3756 108.868 22.6065C107.769 22.9235 107.207 23.1244 105.994 23.6019C105.695 23.3959 105.339 23.3001 105.014 23.2864C105.88 22.8886 108.358 21.9392 109.985 21.4258C111.372 20.9887 113.177 20.4284 115.405 20.4885C115.405 20.4885 114.936 21.8631 112.359 22.9634C111.421 23.3644 110.084 23.6812 108.754 23.9964C107.384 24.321 106.021 24.6439 105.109 25.0554ZM106.238 21.842C106.176 21.9532 106.015 22.1942 105.917 22.3418L105.87 22.4127C108.717 21.9223 111.846 19.7084 112.814 18.3373C113.781 16.9649 113.505 14.9158 113.505 14.9158C112.567 15.1117 110.527 16.9204 110 17.4629C109.472 18.0057 107.875 19.6026 106.772 20.4953L106.425 21.5247C107.372 20.7425 108.496 19.8676 109.195 19.3262C109.733 18.9079 110.539 18.3181 111.342 18.0356C111.342 18.0356 110.602 19.0255 110.007 19.506C109.319 20.0649 108.621 20.5505 108.045 20.8755C107.964 20.9211 107.89 20.9636 107.818 21.0048C107.432 21.2243 107.108 21.4091 106.238 21.842ZM105.548 18.3751L105.548 18.3664V18.3285C106.133 17.0687 107.074 15.519 107.811 14.4257C108.41 13.5341 109.784 11.8956 110.738 11.0638C110.964 12.0922 111.312 14.0091 110.469 15.6616C109.626 17.3162 107.54 19.6898 105.439 20.8356L105.202 20.9365C104.946 21.0483 104.691 21.1705 104.469 21.2822C104.745 20.9764 104.979 20.6579 105.159 20.3356C105.286 20.1056 105.376 19.864 105.436 19.6261L105.51 19.3675C106.075 18.9804 106.65 18.4096 107.131 17.9333L107.131 17.9332L107.131 17.9331C107.3 17.7656 107.457 17.6099 107.597 17.4779C108.139 16.97 108.904 15.9517 109.33 14.675C108.823 15.0111 108.369 15.4279 107.829 16.1173C107.173 16.9533 106.49 17.8503 105.882 18.6491L105.526 19.1179L105.55 18.7887C105.554 18.6411 105.551 18.5012 105.548 18.3761V18.3759V18.3758V18.3756V18.3755V18.3753V18.3752V18.3751ZM79.3047 31.4161C78.4377 32.3073 76.6115 34.3055 76.7838 36.4748C76.7838 36.4748 78.4804 35.929 79.1786 34.6496L79.2458 34.5264L79.2458 34.5264C79.9044 33.3187 80.3184 32.5595 80.6032 32.2798C80.4132 32.3066 80.2252 32.3058 80.0422 32.2762L79.8884 32.2502C79.4582 33.0553 78.6054 34.3766 77.8373 34.8369C77.8373 34.8369 77.6412 33.7675 79.898 31.5999C79.9305 31.5117 79.9758 31.411 80.0389 31.2991C79.8321 31.3744 79.5969 31.4199 79.332 31.4133L79.3047 31.4161ZM99.4922 22.7506C101.418 21.3956 102.127 20.3911 102.559 19.4103C102.786 21.2315 102.127 22.4704 101.582 22.9145C101.037 23.3581 100.811 23.8016 100.811 23.8016C102.105 22.9379 102.923 23.4751 102.923 23.4751C102.672 24.8766 101.537 25.1344 101.537 25.1344C102.763 24.9935 103.263 25.6245 103.263 25.6245C102.808 26.6528 101.628 26.6982 101.628 26.6982C102.672 27.5407 102.491 28.1479 102.491 28.1479C101.333 28.4285 100.697 27.843 100.697 27.843C101.583 29.0355 100.9 29.9226 100.9 29.9226C99.72 29.76 99.3337 28.802 99.3337 28.802C99.4468 29.8765 98.924 30.1557 98.924 30.1557C98.2878 29.9469 97.97 29.3614 97.97 29.3614C97.6293 30.1104 96.8344 30.25 96.8344 30.25C96.4939 29.5726 96.744 28.9424 96.744 28.9424C96.0626 29.1524 95.8577 28.7312 95.8577 28.7312C96.29 28.241 96.5389 27.4705 96.5389 27.4705C97.7197 27.9607 99.1738 27.7044 99.5826 27.2127C99.9226 26.806 99.5113 25.8681 99.1539 25.0533C99.0806 24.8862 99.0096 24.7244 98.9478 24.5733C98.5843 23.6857 99.0606 23.0543 99.4922 22.7506ZM97.8046 33.5013C97.9764 33.2667 98.1048 33.0333 98.2001 32.8059C98.186 32.9254 98.1724 33.0422 98.1592 33.1565L98.1591 33.1571C97.9839 34.6671 97.8606 35.7297 97.0314 36.7529C97.0314 36.7529 96.4927 36.0153 96.8415 34.2256C96.9911 34.1809 97.1583 34.109 97.3219 33.9955C97.3219 33.9955 97.1179 34.7217 97.2444 35.4547C97.2444 35.4547 97.568 35.2134 97.8046 33.5013ZM99.7689 32.6855C99.6605 32.8944 99.4555 33.1863 99.3482 33.3246C99.6064 35.1408 99.186 35.4685 99.186 35.4685C98.7667 34.6211 98.9071 33.4183 98.9071 33.4183C98.8862 33.3937 98.8608 33.3649 98.8326 33.3329C98.7202 33.2056 98.5634 33.0279 98.4655 32.8585C98.6686 36.6471 99.2502 37.0834 99.2502 37.0834C100.051 36.3134 99.8663 33.9396 99.7818 32.8532C99.7772 32.7932 99.7728 32.7372 99.7689 32.6855ZM101.366 35.3111C100.654 34.4348 100.441 31.8107 100.441 31.8107C100.342 31.7429 100.243 31.6688 100.145 31.5878C100.104 31.5536 100.064 31.5187 100.027 31.4821C100.028 31.5777 100.025 31.6762 100.015 31.7752C100.118 33.3543 100.24 34.9823 100.719 35.7927C101.189 36.5863 102.051 36.9987 102.051 36.9987C102.862 35.5175 101.883 33.5284 101.065 32.1472C100.962 32.1072 100.86 32.0594 100.758 32.0049C100.822 32.2419 100.898 32.4888 100.977 32.7403C101.25 33.6178 101.54 34.551 101.366 35.3111ZM103.325 31.1348C103.347 31.0622 103.379 30.9256 103.373 30.755C105.297 32.8674 106.412 33.2267 106.412 33.2267C105.757 31.8665 104.216 30.98 103.5 30.5676C103.437 30.5312 103.38 30.4984 103.33 30.4693C103.294 30.3341 103.229 30.1899 103.122 30.0467C103.148 30.0508 103.174 30.0539 103.199 30.0571L103.201 30.0573C103.541 30.0989 103.809 30.0372 104.016 29.9386C104.817 30.5401 105.908 31.445 106.76 32.4368C107.612 33.4284 107.919 34.3486 108.074 35.5117C108.074 35.5117 106.48 35.4548 105.474 34.017C104.469 32.5798 103.964 31.927 103.288 31.2409C103.303 31.2102 103.312 31.1798 103.319 31.1546L103.325 31.1348ZM104.636 29.3063L104.57 29.1837C104.548 29.1439 104.525 29.1069 104.499 29.0709C104.603 29.1128 104.751 29.1711 104.928 29.2412L104.93 29.2422L104.931 29.2424C105.862 29.6111 107.608 30.303 108.241 30.6399C108.995 31.043 110.087 31.9582 110.681 33.8133C110.681 33.8133 109.108 33.9594 107.808 32.8538C107.159 32.3011 106.457 31.64 105.836 31.0552L105.836 31.0551L105.836 31.055L105.836 31.055L105.836 31.0549C105.213 30.4678 104.671 29.9577 104.347 29.7115C104.413 29.6491 104.463 29.5895 104.499 29.541C104.499 29.541 106.257 31.143 108.115 31.8337C108.115 31.8337 107.717 31.0922 106.983 30.5536C106.297 30.0515 105.744 29.8052 105.17 29.5496L105.17 29.5495C104.996 29.4718 104.819 29.3932 104.636 29.3063ZM105.891 28.029C105.918 28.0883 105.945 28.149 105.971 28.2134C106.607 28.3799 107.443 28.6772 108.204 29.0057C108.904 29.3079 109.572 29.7936 109.572 29.7936C108.22 29.7587 106.858 29.2047 105.838 28.7394C105.695 28.8295 105.419 28.9648 105.03 28.9946C105.519 29.1264 106.318 29.3814 108.872 30.6179C111.429 31.8555 112.782 31.4249 112.782 31.4249C111.86 29.6164 110.305 28.9688 109.446 28.6979C108.888 28.5219 107.88 28.3606 107.031 28.2248L107.031 28.2248C106.573 28.1516 106.161 28.0857 105.891 28.029ZM105.906 26.9101C105.656 27.0313 105.463 27.0917 105.137 27.1275C105.316 27.2444 105.485 27.3963 105.637 27.5978C106.537 27.8647 108.071 28.1565 110.602 28.3447C113.135 28.5325 114.485 28.0529 114.485 28.0529C113.603 27.499 112.195 26.9352 111.245 26.7468C110.729 26.6443 109.758 26.6032 108.803 26.5628C107.996 26.5286 107.201 26.495 106.7 26.4252C106.687 26.4368 106.554 26.5493 106.34 26.683C106.458 26.694 106.594 26.7051 106.743 26.7173L106.743 26.7173C107.751 26.7996 109.354 26.9306 110.236 27.3897C110.236 27.3897 108.368 27.6469 105.906 26.9101ZM97.9876 29.8094C98.0507 29.8809 98.1241 29.9583 98.2118 30.0342C98.2769 30.5025 98.2946 31.1794 98.2337 31.6688C98.1562 32.2947 97.9836 32.9019 97.4796 33.5082C96.9677 34.1236 96.273 34.0343 96.273 34.0343C96.4298 33.7664 96.6895 32.9901 96.7764 32.6168C96.8631 32.2414 97.0376 31.5886 97.2029 31.1075C97.4184 30.546 97.8554 29.9801 97.9876 29.8094ZM99.3031 30.128C99.1751 30.3051 99.0513 30.3778 99.0393 30.3841L98.9478 30.4338L98.8484 30.4015C98.7622 30.3725 98.6836 30.3397 98.6087 30.301C98.5101 30.5893 98.4682 30.7293 98.4427 30.9742L98.4373 31.0254C98.4028 31.3516 98.3518 31.8341 98.4654 32.2321C98.5956 32.69 98.8473 32.9874 99.0159 33.1866C99.0354 33.2096 99.0537 33.2313 99.0706 33.2518C99.0706 33.2518 99.5246 32.7383 99.6547 32.3145C99.7904 31.8713 99.8395 31.3555 99.6713 30.828C99.5816 30.5426 99.4339 30.2784 99.3031 30.128ZM99.7874 29.7408C100.051 29.9402 100.404 30.113 100.868 30.1772C102.244 31.4893 102.085 32.0222 102.085 32.0222C101.395 32.1334 100.767 31.7711 100.301 31.3879C99.9894 31.1314 99.7737 30.7761 99.7066 30.4553C99.6415 30.1509 99.7196 29.9316 99.7783 29.7664L99.7874 29.7408ZM101.391 29.2862C101.338 29.7517 101.123 30.0469 101.099 30.08L101.097 30.0816C101.114 30.1026 101.136 30.1327 101.163 30.1697L101.163 30.1697C101.388 30.4842 101.97 31.2937 103.059 31.1375C103.059 31.1375 103.388 30.4364 102.578 29.8781C102.073 29.5312 101.813 29.438 101.482 29.319L101.391 29.2862ZM102.549 28.3969C102.032 28.5225 101.609 28.4897 101.284 28.4055C101.324 28.5128 101.359 28.6684 101.376 28.7543C101.809 29.314 102.419 29.7038 103.23 29.803C104.04 29.9028 104.351 29.3077 104.351 29.3077C104.209 29.0446 103.916 28.9012 103.576 28.735C103.306 28.6029 103.006 28.4563 102.73 28.2237L102.687 28.3637L102.549 28.3969ZM102.689 27.6679C102.648 27.6068 102.612 27.534 102.572 27.4533C102.497 27.3024 102.409 27.1242 102.25 26.9447C102.787 26.8502 103.272 26.8427 103.9 26.9652C104.648 27.1109 105.411 27.2921 105.792 28.4618C105.792 28.4618 105.312 28.8824 104.44 28.6997C103.701 28.5439 103.056 28.2161 102.689 27.6679ZM103.49 25.7305C103.365 26.0136 103.193 26.2314 103.005 26.3985C103.343 26.6586 104.122 26.9076 104.965 26.883C105.809 26.8585 106.54 26.2283 106.54 26.2283L106.521 26.1995C106.359 25.953 106.174 25.6718 105.537 25.4268C104.878 25.1736 104.203 25.3128 103.554 25.5852L103.49 25.7305ZM102.808 25.0305C102.698 24.9865 102.573 24.9469 102.431 24.9171C102.719 24.6574 103 24.2624 103.137 23.6696C103.439 23.7424 104.146 23.7424 104.457 23.6195C104.767 23.4973 105.38 23.4894 105.856 23.8159C105.856 23.8159 105.699 24.6746 104.615 24.9693C103.599 25.2457 103.222 25.1743 102.808 25.0305ZM103.056 23.2586L103.199 23.3518C104.25 23.5128 104.68 23.3002 105.292 22.7271C105.883 22.1758 106.39 20.8056 106.39 20.8056C105.848 20.879 104.785 21.3682 104.147 21.7378C103.706 21.9936 103.133 22.457 102.725 22.7863C102.588 22.8975 102.469 22.9933 102.381 23.0608C102.795 23.0936 103.037 23.2455 103.056 23.2586ZM102.105 22.7229C102.364 22.3761 102.569 21.9001 102.72 21.3373C102.739 21.2661 102.761 21.1786 102.787 21.0804C102.926 20.5464 103.148 19.6971 103.288 19.4482C103.455 19.153 104.051 18.1222 105.22 17.8037C105.22 17.8037 105.53 19.1449 104.942 20.2082C104.434 21.1229 103.397 22.0891 102.105 22.7229ZM95.1115 29.3319C95.3712 29.1977 95.4797 29.1135 95.6285 28.9652L95.6706 28.9069C95.6765 28.916 95.6826 28.9248 95.6901 28.9354C95.7767 29.0473 95.9993 29.2649 96.419 29.2548C96.411 29.3252 96.4053 29.4036 96.4053 29.4878C96.4053 29.7424 96.4525 30.0497 96.6128 30.3678L96.6964 30.5338L96.8768 30.5023C96.8945 30.5001 97.1081 30.4579 97.369 30.3212C97.348 30.3491 97.3271 30.3764 97.3064 30.4035C97.089 30.6874 96.8826 30.9569 96.7154 31.8124C96.4466 33.1959 96.2042 33.2316 96.2042 33.2316C96.0224 32.7321 95.64 31.8299 95.1893 30.9462C94.7383 30.0634 95.1115 29.3319 95.1115 29.3319ZM102.862 31.4161C103.727 32.3073 105.554 34.3055 105.381 36.4748C105.381 36.4748 103.685 35.929 102.987 34.6496L102.907 34.5026C102.255 33.3087 101.846 32.5577 101.563 32.2798C101.752 32.3066 101.939 32.3058 102.124 32.2762L102.278 32.2502C102.708 33.0553 103.561 34.3766 104.329 34.8369C104.329 34.8369 104.524 33.7675 102.268 31.5999C102.235 31.5117 102.189 31.411 102.127 31.2991C102.333 31.3744 102.568 31.4199 102.833 31.4133L102.862 31.4161ZM91.0827 13.8318C90.3513 13.8318 89.7577 13.9621 89.7577 14.1216C89.7577 14.2821 90.3513 14.4113 91.0827 14.4113C91.8148 14.4113 92.4075 14.2821 92.4075 14.1216C92.4075 13.9621 91.8148 13.8318 91.0827 13.8318ZM85.2605 15.6898C85.2605 15.6018 85.6427 15.5314 86.1155 15.5314C86.5859 15.5314 86.968 15.6018 86.968 15.6898C86.968 15.7775 86.5859 15.8484 86.1155 15.8484C85.6427 15.8484 85.2605 15.7775 85.2605 15.6898ZM91.0827 15.0287C91.2269 15.0287 91.3428 14.9091 91.3428 14.7608C91.3428 14.613 91.2269 14.4929 91.0827 14.4929C90.9382 14.4929 90.8211 14.613 90.8211 14.7608C90.8211 14.9091 90.9382 15.0287 91.0827 15.0287ZM89.6621 13.8397C89.2211 12.7576 88.9265 11.9614 88.9383 11.6936C88.9462 11.5304 89.1332 11.4115 89.3087 11.3563C89.4837 11.3001 89.6405 11.2901 89.7577 11.3811C89.9868 11.5619 90.2008 13.0211 90.2793 13.6276C90.0552 13.6728 89.9218 13.701 89.6621 13.8397Z" fill="#0055A6"/>
<path fill-rule="evenodd" clip-rule="evenodd" d="M91.3273 12.2746C91.2204 12.5495 91.1159 12.8183 91.091 12.9962H91.0738C91.0493 12.8178 90.9444 12.5479 90.8372 12.2721C90.7083 11.9406 90.5761 11.6006 90.5761 11.4004C90.5761 11.1128 90.8028 10.8789 91.083 10.8789C91.3631 10.8789 91.5892 11.1128 91.5892 11.4004C91.5892 11.6011 91.4565 11.9423 91.3273 12.2746ZM82.2637 12.9783C82.2351 13.0387 82.2351 13.1895 82.25 13.2422C82.2641 13.244 82.2774 13.2458 82.2901 13.2476C82.389 13.2614 82.4583 13.2711 82.6859 13.2098C82.9471 13.1394 83.2908 12.8603 83.5675 12.6285C83.8431 12.3967 84.0261 12.4195 84.0261 12.4195C83.9311 12.3364 83.7278 12.1871 83.4 12.2544C82.8802 12.3603 82.2637 12.9783 82.2637 12.9783ZM86.7027 12.7309H86.2841V12.2546H85.9455V12.7309H85.5256V13.031H85.9455V13.5922H86.2841V13.031H86.7027V12.7309ZM86.5164 14C86.5164 13.7966 86.2774 13.7365 86.153 13.7365H86.0853C85.9621 13.7365 85.721 13.7966 85.721 14C85.721 14.1344 85.854 14.3922 85.9695 14.6162C86.0306 14.7346 86.0869 14.8437 86.116 14.92H86.1228C86.1518 14.8434 86.2081 14.734 86.2692 14.6151C86.3842 14.3913 86.5164 14.1342 86.5164 14ZM86.4289 18.6894C86.1745 18.4779 85.8222 17.9976 85.8222 17.9976L85.7824 18.0067C85.3425 18.1082 85.0265 18.181 84.6829 18.6648C84.3551 19.1259 84.8039 19.8314 84.8039 19.8314C85.1312 18.6775 86.4289 18.6894 86.4289 18.6894ZM87.8045 18.4465C87.6658 18.4095 87.247 18.2843 87.247 18.2843C87.7444 18.6392 87.8982 18.769 88.1384 19.0268C88.5625 19.4813 88.7995 20.0483 88.7995 20.0483C88.9812 19.7243 88.9631 19.512 88.9631 19.512C88.6357 19.1258 88.2177 18.1653 88.2177 18.1653C88.1089 18.156 87.9864 18.1253 87.8759 18.0977C87.8496 18.0911 87.8241 18.0847 87.7995 18.0788C87.8113 18.1972 87.8045 18.4465 87.8045 18.4465ZM86.1436 18.0788C86.2783 18.1162 86.9466 18.3319 87.2716 18.5715C87.6776 18.8703 87.9569 19.2129 87.9137 19.8047C87.9137 19.8047 87.5869 19.3381 87.2233 19.1258C86.9359 18.9581 86.417 18.4899 86.1436 18.0788ZM85.8824 15.3313C85.8726 15.2836 85.8614 15.2232 85.8487 15.1549C85.785 14.8113 85.6843 14.2677 85.5398 14.1297C85.3751 13.9723 85.134 13.9571 85.0137 13.9653C84.8927 13.9723 84.7643 14.1013 84.8152 14.2694C84.8652 14.438 85.4024 15.2668 85.4727 15.3706C85.5591 15.3559 85.5739 15.3548 85.677 15.3472H85.677H85.677H85.677C85.7231 15.3438 85.7868 15.3391 85.8824 15.3313ZM86.3927 15.1457L86.3927 15.1457L86.3926 15.1458L86.3926 15.146C86.3791 15.2179 86.3672 15.2815 86.3569 15.3313C86.4523 15.3391 86.5159 15.3438 86.5619 15.3472L86.5619 15.3472C86.6648 15.3548 86.6796 15.3559 86.7666 15.3706C86.8365 15.2668 87.3744 14.438 87.424 14.2694C87.4756 14.1013 87.3473 13.9723 87.2251 13.9653C87.1063 13.9571 86.863 13.9723 86.7 14.1297C86.5572 14.2665 86.457 14.8016 86.3927 15.1457ZM81.645 15.5284C81.6335 15.6194 81.6274 15.7112 81.6263 15.8023C81.397 15.3978 80.7354 15.8177 80.7354 15.8177C81.1464 15.1349 81.3514 15.0543 81.6472 14.9381L81.6551 14.935C81.6796 15.0985 81.6778 15.2971 81.645 15.5284ZM82.2055 16.8952C82.2135 16.7237 82.3227 16.1838 82.4603 15.8022C82.63 15.3359 82.5335 14.6563 82.3295 14.2453C82.1329 13.8478 82.0244 13.4741 82.0596 13.0621C82.0596 13.0621 81.6669 13.1971 81.4415 13.34C81.4091 13.7635 81.6178 14.186 81.7563 14.4663L81.7563 14.4663C81.7741 14.5024 81.7908 14.5361 81.8056 14.5672C81.9584 14.8887 81.9268 15.3063 81.8925 15.5628C81.8351 15.9966 81.9216 16.461 82.2055 16.8952ZM84.0763 12.466C84.31 12.7054 84.5046 12.9573 84.5011 13.1759C84.4967 13.4033 84.2409 13.9713 84.1069 14.1891L84.0751 14.2402C83.9434 14.4507 83.7776 14.7157 83.7989 15.0352C83.8107 15.2076 83.9267 15.385 84.0647 15.5303C84.0647 15.5303 83.3097 15.3459 83.2171 14.8659C83.1407 14.4659 83.2901 14.1771 83.409 13.9471L83.4346 13.8975C83.4815 13.8051 83.5689 13.6613 83.6614 13.5092L83.6614 13.5092C83.7919 13.2944 83.9326 13.0629 83.9841 12.9355C84.0638 12.739 84.1062 12.5745 84.0763 12.466ZM89.1544 19.346C88.9015 18.9395 88.6453 18.4237 88.4936 17.8752C89.1688 18.1421 89.5364 18.7738 89.6711 19.1973C89.8465 19.7451 89.5051 20.5201 89.5051 20.5201C89.5267 20.3161 89.3819 19.7136 89.1544 19.346ZM89.3445 18.0558C89.3445 18.0558 89.8613 18.063 90.1046 18.2275C90.4169 18.4398 90.713 18.9009 90.8263 19.4554C90.8263 19.4554 90.3024 19.3623 90.0438 19.0965C89.7857 18.8302 89.4666 18.4318 89.3445 18.0558ZM86.1648 19.1284C86.2948 19.0889 86.5608 19.0267 86.6602 19.0179C87.2382 19.3862 87.4466 19.6741 87.5649 19.8468C87.7255 20.0818 88.0744 20.3087 88.0744 20.3087C88.0131 20.4265 87.7698 21.2547 87.8318 21.6533L87.7916 21.6619C87.692 21.4742 87.3603 20.8482 87.2529 20.2696C87.1771 19.8544 87.0148 19.6072 86.8274 19.4484C86.6073 19.261 86.1648 19.1284 86.1648 19.1284ZM89.0355 20.4314L89.0355 20.4314C89.1855 20.7457 89.4019 21.1991 89.2683 21.669C89.1746 21.9985 89.0139 22.218 88.8523 22.4389C88.7374 22.5958 88.6221 22.7533 88.53 22.9514C88.53 22.9514 88.3546 22.0911 88.3943 21.4264C88.4317 20.762 88.668 20.5044 88.9574 20.262C88.9787 20.3124 89.0058 20.3691 89.0355 20.4314ZM90.5614 21.7165C90.4677 21.3124 89.9528 20.285 89.9528 20.285C89.81 20.7487 89.6498 21.2065 89.5331 21.54C89.4628 21.7408 89.4083 21.8966 89.3828 21.9817C89.3136 22.2086 89.2528 22.7483 89.2904 22.9752C89.3306 23.2021 89.6488 23.6321 89.6488 23.6321C89.8372 23.2823 90.0363 23.0504 90.1991 22.8607C90.2726 22.7751 90.3387 22.6981 90.3931 22.6227C90.5686 22.3806 90.6521 22.1143 90.5614 21.7165ZM90.218 23.5668C90.1035 23.6924 89.5018 24.4362 89.4204 24.6538C89.3396 24.8716 89.2005 25.2817 89.3876 25.5657C89.5759 25.8499 90.0033 26.3065 90.3791 26.4995C90.3791 26.4995 89.9727 25.8459 90.014 25.31C90.0302 25.0998 90.1334 24.9036 90.2221 24.7349C90.2778 24.6289 90.3278 24.5338 90.347 24.4529C90.3961 24.2448 90.3636 23.8929 90.218 23.5668ZM89.3137 23.9196C89.2925 23.6068 89.1307 23.2868 89.0381 23.1548L89.0217 23.2336C88.9404 23.6242 88.8463 24.0763 88.6415 24.5612C88.4541 25.0027 88.0114 25.6245 88.0114 25.6245C88.1667 25.9956 88.4506 26.4112 88.4506 26.4112C88.5983 26.1272 88.9182 25.4938 89.1239 24.9256C89.2875 24.4741 89.3355 24.226 89.3137 23.9196ZM88.8324 22.9145C88.8324 22.9145 88.6422 24.3771 87.8052 25.4643C87.2391 26.2 86.7783 26.4553 86.4739 26.4553C86.0143 26.4553 85.5527 26.0613 85.3967 25.6107C85.2413 25.1594 85.2904 24.4598 85.5879 24.2117C85.5879 24.2117 85.8646 25.0896 86.4524 25.1215C87.1181 25.1594 87.9761 24.3936 88.8324 22.9145ZM88.1464 23.3448C88.2379 22.9659 88.217 22.5645 88.1464 22.3027C87.5926 23.8906 86.3746 23.7959 86.3746 23.7959C86.6297 24.4445 87.2966 24.4001 87.579 24.2187C87.9058 24.0085 88.0756 23.6314 88.1464 23.3448ZM90.1399 28.2033C90.2126 28.3952 90.3674 28.6093 90.5183 28.8182C90.7132 29.0879 90.9019 29.3489 90.9 29.5424C90.892 30.2267 90.672 30.7118 90.524 31.038L90.524 31.038L90.524 31.0381C90.4751 31.1458 90.4341 31.2362 90.4112 31.3107C90.4112 31.3107 89.7021 30.7319 89.5759 30.0671C89.5127 29.7283 89.5868 28.707 90.1399 28.2033ZM89.9921 27.7421C89.6909 27.9669 89.4308 28.61 89.3472 28.8455C89.2414 28.6463 89.094 28.4693 88.9505 28.2969C88.6694 27.9591 88.4031 27.6392 88.4937 27.2064C88.6285 26.5529 89.1386 25.8567 89.1386 25.8567C90.3791 26.5736 89.9921 27.7421 89.9921 27.7421ZM87.7958 25.8997C87.5966 26.1452 87.3153 26.4886 87.0965 26.5954C87.0965 26.5954 87.0233 27.1173 87.0648 27.4633C87.1074 27.8111 87.2685 28.164 87.4107 28.4754C87.4788 28.6245 87.5425 28.7641 87.5868 28.8891C87.5868 28.8891 88.1284 28.1604 88.1915 27.7315C88.2314 27.4547 88.2411 27.2094 88.2487 27.0155C88.2529 26.909 88.2565 26.818 88.2642 26.7458C88.2642 26.7458 87.9618 26.2414 87.7958 25.8997ZM85.708 26.6329C85.7149 27.2748 86.2131 28.1594 86.3666 28.3988C86.6149 28.2063 86.7215 28.0691 86.801 27.8397C86.9004 27.5569 86.8324 26.7224 86.8324 26.7224C86.3205 26.9667 85.708 26.6329 85.708 26.6329ZM86.5079 28.578C86.6074 28.4892 86.8512 28.2577 86.951 28.1358C86.951 28.1358 87.3563 28.9003 87.4255 29.1245C87.4255 29.1245 87.2228 29.1778 87.0001 29.0112C86.7773 28.8439 86.7262 28.802 86.5079 28.578ZM87.5682 29.3747C87.6813 29.2592 88.3374 28.3224 88.3874 28.1289C88.4911 28.3248 88.6588 28.5347 88.8186 28.7348C88.9838 28.9416 89.1408 29.138 89.2103 29.2981C89.2697 29.4316 89.2852 29.7922 89.1487 30.1582C89.0281 30.4784 88.6234 31.205 88.6234 31.205C88.4433 31.0316 88.1057 30.6907 87.8624 30.2028C87.6193 29.7147 87.5682 29.3747 87.5682 29.3747ZM89.3729 30.5822C89.4239 30.6895 89.5121 30.8209 89.6076 30.9634C89.7812 31.2221 89.9791 31.5171 90.0228 31.769C90.0757 32.0769 90.0285 32.3277 89.9479 32.54C89.8924 32.6842 89.7529 32.9216 89.6141 33.1578C89.5494 33.2679 89.4848 33.3778 89.429 33.4779C89.429 33.4779 88.8306 32.8976 88.6985 32.4819C88.5983 32.1683 88.6365 31.7241 88.7802 31.4484C88.8481 31.3173 88.9545 31.1801 89.0621 31.0415L89.0621 31.0414L89.0622 31.0414L89.0622 31.0414C89.181 30.8883 89.3013 30.7332 89.3729 30.5822ZM87.9751 30.9701C87.8623 30.8154 87.7466 30.6569 87.6752 30.4985L87.6403 30.5734C87.5241 30.8226 87.3725 31.1479 87.2814 31.4044C87.1812 31.6863 87.2069 32.1294 87.2886 32.3996C87.3683 32.6697 87.8556 33.317 87.8556 33.317C87.8875 33.2016 87.9511 33.0889 88.0258 32.9565C88.0966 32.8312 88.1773 32.6882 88.2506 32.5085C88.4177 32.0902 88.3863 31.8597 88.2869 31.5C88.2403 31.3336 88.1097 31.1546 87.9751 30.9701ZM90.0722 32.9641C90.0722 32.9641 89.2352 34.0044 89.2546 34.5557C89.2694 34.9643 89.4319 35.2911 89.5745 35.578C89.6719 35.774 89.7601 35.9513 89.7857 36.1234C89.7857 36.1234 90.2238 35.6125 90.3909 35.2697C90.5783 34.8837 90.722 34.5565 90.6728 34.12C90.6219 33.6836 90.5092 33.4015 90.0722 32.9641ZM88.93 34.1454C89.0364 33.7404 88.662 33.0605 88.5301 32.8613C87.8625 33.5037 87.7948 34.0236 87.8684 34.3444C87.9433 34.6652 88.2751 35.3652 88.2751 35.3652C88.3101 35.3027 88.3631 35.2188 88.4244 35.1219C88.6029 34.8397 88.8515 34.4466 88.93 34.1454ZM96.9035 15.6899C96.9035 15.6019 96.5224 15.5315 96.0507 15.5315C95.5801 15.5315 95.1983 15.6019 95.1983 15.6899C95.1983 15.7776 95.5801 15.8485 96.0507 15.8485C96.5224 15.8485 96.9035 15.7776 96.9035 15.6899ZM92.5034 13.8398C92.9454 12.7577 93.2387 11.9616 93.2271 11.6937C93.2188 11.5306 93.0331 11.4116 92.8569 11.3564C92.6802 11.3003 92.5239 11.2902 92.4086 11.3813C92.1784 11.562 91.9654 13.0212 91.8859 13.6277C92.1103 13.6729 92.2454 13.7011 92.5034 13.8398ZM91.3569 13.5814C91.4715 13.5852 91.5864 13.5927 91.6988 13.6045C91.7657 13.0841 91.8447 12.5594 91.9471 12.0108C92.0504 11.4618 92.2381 10.9318 92.2381 10.9318C91.9961 11.001 91.8504 11.2749 91.7351 11.6553C91.6198 12.0364 91.4261 13.0024 91.3569 13.5814Z" fill="#0055A6"/>
<path fill-rule="evenodd" clip-rule="evenodd" d="M89.0727 15.54C89.558 15.4208 90.0555 14.8863 90.0555 14.8863C89.2723 15.0033 89.0727 15.54 89.0727 15.54ZM88.3636 15.8334C88.3636 15.8334 89.1238 15.8973 89.8004 15.4904C90.121 15.2969 90.3988 14.8486 90.4601 14.6396C90.1882 14.6007 89.4971 14.679 89.0727 14.9909C88.6482 15.3033 88.5095 15.5587 88.3636 15.8334ZM87.2717 16.6371V16.5804C86.6041 16.668 85.8166 16.6305 85.8166 16.6305C85.8587 16.8862 85.9621 17.0801 86.1376 17.1986C86.1807 16.6434 87.2717 16.6371 87.2717 16.6371ZM85.0591 15.9012C85.0591 15.9012 85.901 16.2254 86.7446 16.1822C86.8846 16.1749 87.0443 16.1683 87.2154 16.1612C88.074 16.1258 89.2228 16.0785 89.6416 15.8705C89.6416 15.8705 89.5581 16.1947 89.1574 16.3823C89.1574 16.3823 89.3703 16.3823 89.576 16.5692C89.576 16.5692 89.4546 16.8368 89.0973 16.9803C89.0973 16.9803 89.7392 17.6662 90.4249 17.6167C90.4249 17.6167 90.1085 18.0217 89.4057 17.8652C88.7772 17.7265 88.5308 17.3872 88.3989 17.2057L88.3989 17.2057L88.3989 17.2057L88.3989 17.2057L88.3989 17.2056C88.3834 17.1844 88.3696 17.1653 88.3568 17.1489C88.3568 17.1489 88.4483 17.5351 88.4052 17.6916C88.4052 17.6916 88.096 17.6723 87.8538 17.3604C87.8538 17.3604 88.0301 17.6723 88.0654 17.9347C88.0654 17.9347 87.8726 17.9595 87.5256 17.7478C87.5256 17.7478 87.5985 17.9407 87.6114 18.165C87.6114 18.165 86.7983 17.8967 86.4041 17.5169C86.4041 17.5169 86.3983 17.7778 86.417 17.9286C86.417 17.9286 85.1556 17.7973 85.0591 15.9012ZM85.1381 17.1364C84.9982 16.8497 84.8944 16.4442 84.8652 16.0331C84.3681 15.8777 84.3972 16.101 84.5194 16.4265C84.6407 16.7507 85.1381 17.1364 85.1381 17.1364ZM97.0286 17.1364C97.1681 16.8497 97.271 16.4442 97.3013 16.0331C97.7986 15.8777 97.7683 16.101 97.646 16.4265C97.525 16.7507 97.0286 17.1364 97.0286 17.1364ZM98.2944 17.1679C98.4083 17.1679 98.5011 17.2629 98.5011 17.3802C98.5011 17.4968 98.4083 17.5907 98.2944 17.5907C98.1827 17.5907 98.0892 17.4968 98.0892 17.3802C98.0892 17.2629 98.1827 17.1679 98.2944 17.1679ZM99.3012 16.7008C99.0415 16.3077 98.4534 16.377 98.1739 16.4443C98.0211 16.9418 97.5382 17.1476 97.2184 17.2838C97.1687 17.305 97.123 17.3245 97.083 17.3431C96.7489 17.4987 96.4521 17.8661 96.4521 17.8661C96.955 17.9853 97.1806 18.1346 97.1806 18.1346C98.1433 17.4363 98.9391 18.141 98.9391 18.141C99.46 17.8354 99.5624 17.0935 99.3012 16.7008ZM83.8691 17.5907C83.9834 17.5907 84.0754 17.4968 84.0754 17.3802C84.0754 17.2629 83.9834 17.1679 83.8691 17.1679C83.7563 17.1679 83.6639 17.2629 83.6639 17.3802C83.6639 17.4968 83.7563 17.5907 83.8691 17.5907ZM85.084 17.3431C85.4166 17.4987 85.713 17.8661 85.713 17.8661C85.2096 17.9853 84.9853 18.1346 84.9853 18.1346C84.0215 17.4363 83.2277 18.141 83.2277 18.141C82.7068 17.8354 82.6035 17.0935 82.8643 16.7008C83.1252 16.3077 83.7131 16.377 83.9916 16.4443C84.1442 16.9422 84.6283 17.1479 84.9489 17.2841C84.9985 17.3052 85.0441 17.3246 85.084 17.3431ZM92.1105 14.8856C92.1105 14.8856 92.6069 15.4202 93.0934 15.5393C93.0934 15.5393 92.892 15.0027 92.1105 14.8856ZM91.7056 14.6396C91.9774 14.6007 92.6695 14.679 93.0943 14.9909C93.5186 15.3033 93.6569 15.5587 93.8028 15.8334C93.8028 15.8334 93.0419 15.8973 92.3653 15.4904C92.0454 15.2969 91.7676 14.8486 91.7056 14.6396ZM96.3483 16.6305C96.307 16.8862 96.2046 17.0801 96.0284 17.1986C95.9858 16.6434 94.8949 16.6371 94.8949 16.6371V16.5804C95.5616 16.668 96.3483 16.6305 96.3483 16.6305ZM95.7618 17.5169C95.7618 17.5169 95.7683 17.7778 95.7487 17.9286C95.7487 17.9286 97.0101 17.7973 97.1073 15.9012C97.1073 15.9012 96.2647 16.2254 95.422 16.1822C95.282 16.1749 95.1224 16.1683 94.9512 16.1613C94.0924 16.1259 92.9435 16.0785 92.5239 15.8705C92.5239 15.8705 92.6078 16.1947 93.0085 16.3823C93.0085 16.3823 92.7965 16.3823 92.5897 16.5692C92.5897 16.5692 92.7118 16.8368 93.0693 16.9803C93.0693 16.9803 92.4272 17.6662 91.741 17.6167C91.741 17.6167 92.0559 18.0217 92.7602 17.8652C93.3894 17.7265 93.6354 17.3872 93.767 17.2057C93.7825 17.1844 93.7963 17.1653 93.8091 17.1489C93.8091 17.1489 93.7181 17.5351 93.7607 17.6916C93.7607 17.6916 94.0699 17.6723 94.3119 17.3604C94.3119 17.3604 94.1357 17.6723 94.0994 17.9347C94.0994 17.9347 94.2942 17.9595 94.6399 17.7478C94.6399 17.7478 94.5667 17.9407 94.5545 18.165C94.5545 18.165 95.3676 17.8967 95.7618 17.5169Z" fill="#0055A6"/>
<path fill-rule="evenodd" clip-rule="evenodd" d="M90.4333 9.91206H90.8508V9.43457H91.1895V9.91206H91.6101V10.2124H91.1895V10.7724H90.8508V10.2124H90.4333V9.91206ZM95.8812 12.7308H95.4632V13.0309H95.8812V13.592H96.2191V13.0309H96.6395V12.7308H96.2191V12.2544H95.8812V12.7308ZM96.0135 13.7363C95.8891 13.7363 95.6488 13.7964 95.6488 13.9998C95.6488 14.1331 95.7798 14.3876 95.8944 14.6102C95.9566 14.7309 96.014 14.8423 96.043 14.9199H96.0505C96.0795 14.8426 96.1366 14.7318 96.1985 14.6116L96.1985 14.6116L96.1985 14.6116L96.1985 14.6116C96.3133 14.3886 96.4447 14.1334 96.4447 13.9998C96.4447 13.7964 96.2044 13.7363 96.0793 13.7363H96.0135ZM96.3434 17.9974C96.3434 17.9974 95.9918 18.4778 95.7375 18.6893C95.7375 18.6893 97.0345 18.6773 97.3623 19.8313C97.3623 19.8313 97.8105 19.1258 97.4827 18.6646C97.1405 18.1813 96.8234 18.1082 96.3843 18.0069L96.3434 17.9974ZM94.9184 18.2841C94.9184 18.2841 94.4999 18.4093 94.3612 18.4463C94.3612 18.4463 94.3543 18.197 94.3669 18.0787C94.3437 18.0843 94.3195 18.0903 94.2946 18.0965C94.1828 18.1244 94.0573 18.1557 93.9485 18.1652C93.9485 18.1652 93.5303 19.1256 93.2031 19.5119C93.2031 19.5119 93.1845 19.7242 93.3667 20.0482C93.3667 20.0482 93.6026 19.4811 94.0275 19.0266C94.2675 18.7688 94.4213 18.639 94.9184 18.2841ZM94.8946 18.5713C95.2185 18.3317 95.8883 18.116 96.0224 18.0787C95.7485 18.4897 95.2305 18.9579 94.9418 19.1256C94.5797 19.3379 94.2508 19.8046 94.2508 19.8046C94.2084 19.2127 94.4878 18.8701 94.8946 18.5713ZM96.3161 15.1613L96.3161 15.1615C96.304 15.227 96.2933 15.285 96.284 15.3312C96.3795 15.339 96.443 15.3437 96.489 15.3471L96.489 15.3471C96.5916 15.3547 96.6065 15.3558 96.6928 15.3704C96.7623 15.2667 97.301 14.4379 97.3515 14.2692C97.4019 14.1011 97.2737 13.9721 97.1526 13.9651C97.0315 13.957 96.7902 13.9721 96.6265 14.1296C96.4805 14.2685 96.3793 14.818 96.3161 15.1612L96.3161 15.1613L96.3161 15.1613L96.3161 15.1613ZM95.8078 15.3312C95.7985 15.2852 95.7879 15.2276 95.776 15.1625C95.7129 14.8193 95.6117 14.2686 95.4658 14.1296C95.3014 13.9721 95.0601 13.957 94.9391 13.9651C94.819 13.9721 94.6901 14.1011 94.7412 14.2692C94.7914 14.4379 95.3282 15.2667 95.3992 15.3704C95.4859 15.3558 95.5008 15.3547 95.6031 15.3471C95.649 15.3437 95.7124 15.339 95.8078 15.3312ZM100.52 15.5282C100.532 15.6193 100.539 15.7111 100.539 15.8021C100.769 15.3977 101.43 15.8175 101.43 15.8175C101.019 15.1338 100.815 15.054 100.517 14.9374L100.51 14.9348C100.486 15.0983 100.489 15.297 100.52 15.5282ZM99.9599 16.8951C99.952 16.7236 99.843 16.1837 99.7059 15.802C99.5366 15.3357 99.6321 14.6562 99.836 14.2451C100.033 13.8477 100.142 13.474 100.106 13.0619C100.106 13.0619 100.499 13.197 100.724 13.3398C100.756 13.7608 100.55 14.1807 100.412 14.461L100.412 14.4612L100.412 14.4619C100.393 14.4996 100.376 14.5347 100.361 14.567C100.207 14.8886 100.239 15.3061 100.273 15.5626C100.331 15.9965 100.243 16.4609 99.9599 16.8951ZM99.902 12.9782C99.9304 13.0385 99.9315 13.1893 99.9164 13.2421L99.9055 13.2435L99.8772 13.2474C99.7783 13.2612 99.7078 13.2711 99.4794 13.2096C99.2174 13.1392 98.8754 12.8602 98.5982 12.6284C98.3224 12.3966 98.1401 12.4193 98.1401 12.4193C98.2349 12.3362 98.4384 12.1869 98.7668 12.2543C99.2855 12.3601 99.902 12.9782 99.902 12.9782ZM98.088 12.4659C97.8555 12.7053 97.6606 12.9572 97.6646 13.1757C97.6696 13.4032 97.9236 13.9712 98.0596 14.1889L98.0908 14.239C98.2227 14.4497 98.3889 14.7151 98.3669 15.035C98.3538 15.2075 98.2389 15.3848 98.1016 15.5301C98.1016 15.5301 98.8572 15.3457 98.9498 14.8658C99.0255 14.4663 98.8766 14.1778 98.7581 13.9479L98.7321 13.8974C98.6856 13.8064 98.6001 13.6658 98.5093 13.5164C98.3776 13.2996 98.2346 13.0642 98.1828 12.9354C98.1031 12.7388 98.0605 12.5744 98.088 12.4659ZM93.0121 19.3458C93.2641 18.9393 93.522 18.4235 93.6736 17.8751C92.9951 18.142 92.6299 18.7737 92.4948 19.1971C92.32 19.745 92.6623 20.5199 92.6623 20.5199C92.6385 20.316 92.7833 19.7135 93.0121 19.3458ZM92.8209 18.0557C92.8209 18.0557 92.3038 18.0629 92.0607 18.2273C91.7499 18.4396 91.4525 18.9008 91.3391 19.4553C91.3391 19.4553 91.8641 19.3622 92.122 19.0964C92.38 18.83 92.7003 18.4317 92.8209 18.0557ZM95.9994 19.1282C95.8703 19.0887 95.6048 19.0265 95.5061 19.0178C94.9282 19.386 94.7185 19.674 94.6015 19.8466C94.4418 20.0817 94.0913 20.3085 94.0913 20.3085C94.1522 20.4264 94.3957 21.2546 94.3344 21.6532L94.3741 21.6617L94.3753 21.6594C94.4762 21.469 94.8065 20.8457 94.9138 20.2695C94.9891 19.8542 95.1509 19.607 95.339 19.4482C95.5583 19.2608 95.9994 19.1282 95.9994 19.1282ZM93.1321 20.4288L93.1321 20.4288C92.9817 20.7431 92.7642 21.1977 92.8968 21.6689C92.99 21.9977 93.1508 22.217 93.3123 22.4374C93.4276 22.5948 93.5433 22.7526 93.6351 22.9513C93.6351 22.9513 93.8105 22.091 93.7719 21.4262C93.7338 20.7619 93.4982 20.5043 93.2093 20.2618C93.1882 20.3115 93.1614 20.3675 93.1321 20.4288ZM91.4062 21.2102C91.2466 21.4623 91.0995 21.6946 91.09 21.8379H91.0752C91.0653 21.6949 90.9187 21.4633 90.7596 21.2118L90.7596 21.2118L90.7596 21.2118C90.5536 20.8862 90.3265 20.5275 90.3479 20.2849C90.3861 19.8549 90.9424 19.5498 91.0793 19.4876H91.0861C91.223 19.5498 91.7793 19.8549 91.8179 20.2849C91.8388 20.5271 91.6121 20.8851 91.4062 21.2102ZM92.2126 20.2848C92.2126 20.2848 91.6974 21.3123 91.6041 21.7163C91.5144 22.1141 91.5969 22.3805 91.7725 22.6226C91.8273 22.6987 91.8941 22.7766 91.9684 22.8633L91.9684 22.8633L91.9685 22.8633C92.1308 23.0525 92.3293 23.2838 92.5179 23.632C92.5179 23.632 92.8367 23.2019 92.8752 22.975C92.9123 22.7481 92.8525 22.2084 92.7834 21.9815C92.7582 21.8989 92.7059 21.7496 92.6384 21.557C92.521 21.2221 92.3578 20.7566 92.2126 20.2848ZM91.5992 23.5578C91.5333 23.7422 91.3247 24.0516 91.088 24.2612H91.0793C90.8439 24.0516 90.6322 23.7422 90.5669 23.5578C90.5014 23.3742 90.4826 23.1038 90.639 22.8986C90.6621 22.8682 90.6859 22.8374 90.7099 22.8063L90.7099 22.8063C90.8803 22.5853 91.0615 22.3505 91.0764 22.1538H91.088C91.1018 22.3492 91.2819 22.5822 91.4517 22.8018L91.4517 22.8018L91.4518 22.8019C91.477 22.8345 91.5019 22.8667 91.5261 22.8986C91.6827 23.1038 91.6641 23.3742 91.5992 23.5578ZM91.9486 23.5667C92.0621 23.6923 92.6635 24.4361 92.7452 24.6537C92.826 24.8715 92.9645 25.2816 92.7765 25.5656C92.5906 25.8498 92.1623 26.3064 91.7872 26.4993C91.7872 26.4993 92.1929 25.8458 92.1525 25.3099C92.1362 25.1 92.0329 24.9041 91.944 24.7356L91.944 24.7356L91.944 24.7356C91.8879 24.6293 91.8376 24.5339 91.8186 24.4528C91.7695 24.2447 91.8031 23.8928 91.9486 23.5667ZM92.8514 23.9195C92.873 23.6067 93.0348 23.2866 93.1274 23.1546L93.1453 23.2404C93.2261 23.6294 93.3195 24.079 93.5242 24.5611C93.7111 25.0025 94.1543 25.6244 94.1543 25.6244C93.999 25.9954 93.7162 26.4111 93.7162 26.4111C93.5666 26.1271 93.2486 25.4937 93.0435 24.9255C92.8789 24.474 92.8299 24.2259 92.8514 23.9195ZM93.3333 22.9143C93.3333 22.9143 93.5232 24.3769 94.3601 25.4641C94.9271 26.1998 95.3868 26.4551 95.6918 26.4551C96.1522 26.4551 96.613 26.0611 96.7687 25.6106C96.9242 25.1593 96.8749 24.4597 96.5776 24.2115C96.5776 24.2115 96.3009 25.0895 95.713 25.1213C95.0465 25.1593 94.1896 24.3934 93.3333 22.9143ZM94.0203 23.3446C93.928 22.9658 93.9496 22.5644 94.0203 22.3026C94.5729 23.8904 95.7908 23.7957 95.7908 23.7957C95.5356 24.4443 94.8699 24.4 94.5866 24.2186C94.2606 24.0084 94.0902 23.6313 94.0203 23.3446ZM91.0828 26.6469L91.0997 26.6386C91.2651 26.558 91.4079 26.4884 91.5999 26.1881C91.7556 25.9436 91.9026 25.4919 91.8187 25.171C91.7515 24.912 91.6388 24.7537 91.534 24.6064L91.5339 24.6064C91.4779 24.5277 91.4241 24.4521 91.3806 24.3659C91.3554 24.3894 91.3327 24.4118 91.311 24.4332L91.311 24.4332C91.2426 24.5005 91.1836 24.5585 91.088 24.6161H91.0812C90.9825 24.5566 90.9205 24.4966 90.8478 24.4263L90.8478 24.4263L90.8478 24.4262C90.8278 24.4069 90.8071 24.3869 90.7846 24.3659C90.7411 24.4521 90.6873 24.5278 90.6313 24.6066C90.5265 24.7538 90.414 24.912 90.3468 25.171C90.2651 25.4919 90.411 25.9436 90.5663 26.1881C90.7574 26.4881 90.9001 26.5579 91.0649 26.6384L91.0821 26.6469H91.0828ZM91.4443 28.4879C91.277 28.7257 91.118 28.9516 91.0828 29.1136H91.0793C91.0438 28.9518 90.8859 28.726 90.7196 28.4884C90.4892 28.1591 90.2428 27.8069 90.2844 27.5704C90.357 27.1619 90.5538 27.0845 90.767 27.0007C90.8724 26.9593 90.9817 26.9163 91.0821 26.8309H91.088C91.1879 26.9162 91.2965 26.9592 91.4012 27.0006C91.613 27.0844 91.8083 27.1617 91.8808 27.5704C91.9236 27.8067 91.6759 28.1587 91.4443 28.4879ZM92.0275 28.2032C91.9545 28.3947 91.7997 28.6085 91.6487 28.8171C91.4532 29.0871 91.264 29.3486 91.2662 29.5423C91.2738 30.2283 91.4949 30.7141 91.6433 31.0403L91.6433 31.0403C91.6918 31.147 91.7326 31.2366 91.7556 31.3105C91.7556 31.3105 92.4636 30.7317 92.5888 30.067C92.6523 29.7282 92.5788 28.7068 92.0275 28.2032ZM92.173 27.742C92.4742 27.9668 92.7343 28.6099 92.8181 28.8453C92.9242 28.6465 93.0715 28.4696 93.215 28.2975C93.4966 27.9594 93.7632 27.6394 93.6736 27.2063C93.5371 26.5527 93.0269 25.8565 93.0269 25.8565C91.7873 26.5734 92.173 27.742 92.173 27.742ZM94.3709 25.8996C94.569 26.1451 94.8503 26.4884 95.0691 26.5952C95.0691 26.5952 95.1418 27.1171 95.1004 27.4631C95.0579 27.8101 94.8976 28.1621 94.7561 28.473L94.7561 28.473L94.7561 28.4731C94.6878 28.623 94.6239 28.7634 94.5797 28.889C94.5797 28.889 94.0372 28.1603 93.9741 27.7314C93.9338 27.4542 93.9242 27.2085 93.9167 27.0145V27.0145C93.9126 26.9084 93.909 26.8177 93.9014 26.7457C93.9014 26.7457 94.2036 26.2413 94.3709 25.8996ZM96.4576 26.6327C96.4519 27.2747 95.9522 28.1593 95.7998 28.3987C95.5508 28.2061 95.4449 28.069 95.3656 27.8396C95.2651 27.5568 95.3331 26.7222 95.3331 26.7222C95.8452 26.9666 96.4576 26.6327 96.4576 26.6327ZM95.6589 28.5778C95.5584 28.489 95.3142 28.2576 95.2147 28.1356C95.2147 28.1356 94.8093 28.9001 94.7401 29.1244C94.7401 29.1244 94.9434 29.1777 95.1657 29.0111C95.3879 28.8438 95.4392 28.8019 95.6589 28.5778ZM94.5963 29.3746C94.4855 29.259 93.8289 28.3223 93.7791 28.1288C93.675 28.3239 93.5079 28.5329 93.3485 28.7323L93.3485 28.7323C93.1825 28.94 93.0247 29.1373 92.9549 29.2979C92.8968 29.4315 92.8802 29.7921 93.0169 30.158C93.1372 30.4783 93.5417 31.2048 93.5417 31.2048C93.723 31.0314 94.0595 30.6905 94.303 30.2026C94.5471 29.7145 94.5963 29.3746 94.5963 29.3746ZM91.6878 32.6692C91.781 32.4046 91.7775 32.0955 91.6747 31.8844C91.6236 31.7787 91.5148 31.6057 91.404 31.4293C91.2592 31.1988 91.1108 30.9626 91.0828 30.864C91.0529 30.9623 90.9057 31.1974 90.7618 31.4273L90.7618 31.4273C90.6509 31.6044 90.542 31.7783 90.4901 31.8844C90.3879 32.0955 90.3838 32.4046 90.4783 32.6692C90.5631 32.9087 90.7114 33.1072 90.8402 33.2796C90.9511 33.428 91.0475 33.557 91.0763 33.676H91.088C91.1171 33.5569 91.2137 33.428 91.3248 33.2796C91.4539 33.1072 91.6026 32.9087 91.6878 32.6692ZM92.5588 30.962C92.6539 30.8201 92.7417 30.689 92.7928 30.5821C92.8653 30.7337 92.9858 30.8894 93.1049 31.0431C93.2119 31.1812 93.3176 31.3177 93.3862 31.4483C93.5303 31.7239 93.5666 32.1682 93.4661 32.4818C93.3349 32.8974 92.7365 33.4777 92.7365 33.4777C92.6792 33.3745 92.6123 33.2608 92.5455 33.1472L92.5454 33.1471L92.5451 33.1466L92.5451 33.1466L92.5451 33.1466L92.5451 33.1466L92.5451 33.1466L92.5451 33.1465L92.5451 33.1465L92.545 33.1465L92.545 33.1465L92.545 33.1465L92.545 33.1465L92.545 33.1464L92.545 33.1464L92.545 33.1464L92.545 33.1464L92.545 33.1464L92.5449 33.1463L92.5449 33.1463L92.5449 33.1463L92.5449 33.1463C92.4081 32.9139 92.2715 32.6818 92.2174 32.5398C92.1377 32.3275 92.0894 32.0768 92.1434 31.7689C92.1872 31.5166 92.3852 31.2211 92.5588 30.962ZM94.1912 30.969L94.1912 30.9691C94.056 31.1539 93.9249 31.3331 93.8788 31.4998C93.7792 31.8595 93.7476 32.09 93.9162 32.5083C93.9893 32.6891 94.07 32.8328 94.1407 32.9586C94.2146 33.09 94.2776 33.2021 94.3095 33.3168C94.3095 33.3168 94.7963 32.6696 94.8775 32.3994C94.9599 32.1293 94.9845 31.6861 94.8851 31.4042C94.7966 31.157 94.6523 30.8459 94.5385 30.6005L94.5385 30.6005L94.4912 30.4984C94.4198 30.6564 94.3041 30.8147 94.1912 30.969ZM91.272 38.1284L91.2719 38.1284L91.2719 38.1284C91.1714 38.3603 91.0932 38.5404 91.0828 38.6464H91.0812C91.0707 38.5405 90.9928 38.3604 90.8925 38.1287C90.6929 37.6674 90.4048 37.0015 90.3839 36.3087C90.3695 35.7889 90.8181 34.9737 91.0753 34.6651H91.088C91.344 34.9737 91.7969 35.7889 91.781 36.3087C91.7609 37.0014 91.4721 37.6671 91.272 38.1284ZM92.0931 32.9639C92.0931 32.9639 92.9311 34.0043 92.9116 34.5556C92.8971 34.9644 92.7343 35.2913 92.5913 35.5783C92.4938 35.7741 92.4056 35.9513 92.3799 36.1233C92.3799 36.1233 91.9418 35.6124 91.7741 35.2696C91.5873 34.8836 91.4434 34.5563 91.4947 34.1198C91.5439 33.6835 91.6561 33.4014 92.0931 32.9639ZM93.2356 34.1453C93.1304 33.7403 93.5032 33.0604 93.6351 32.8612C94.3031 33.5035 94.3719 34.0235 94.2974 34.3443C94.2225 34.6651 93.8913 35.3651 93.8913 35.3651C93.8562 35.3023 93.803 35.2182 93.7414 35.1208C93.5629 34.8387 93.3146 34.4461 93.2356 34.1453ZM91.6561 40.3151C91.6874 39.8128 91.8714 39.4357 92.0248 39.1211C92.1184 38.9293 92.2006 38.7608 92.23 38.6013C92.3176 38.1394 92.2873 37.6966 91.9378 37.1634C91.6561 38.1582 91.344 38.8846 91.1008 39.3846C91.0948 39.397 91.0889 39.411 91.0828 39.4258C91.0799 39.4191 91.0773 39.4126 91.0747 39.4064L91.0747 39.4063C91.0717 39.3987 91.0687 39.3914 91.0656 39.3846C90.8212 38.8846 90.5089 38.1582 90.2276 37.1634C89.8791 37.6966 89.8481 38.1394 89.9346 38.6013C89.9647 38.7597 90.0465 38.927 90.1394 39.1172C90.2935 39.4326 90.4783 39.8108 90.5089 40.3151C90.5593 41.1246 89.6731 41.434 89.6731 41.434C89.9725 41.5433 90.3123 41.5926 90.8526 41.0664C90.952 40.9702 91.0271 40.8653 91.0828 40.7549C91.1394 40.8653 91.2139 40.9702 91.3134 41.0664C91.8531 41.5926 92.1929 41.5433 92.4923 41.434C92.4923 41.434 91.6059 41.1246 91.6561 40.3151ZM89.0875 35.4942L89.0875 35.4941C89.0033 35.2975 88.9127 35.086 88.8667 34.9367C88.7384 35.1678 88.4502 35.5138 88.2935 35.702L88.2514 35.7526C88.1093 35.9214 88.0298 36.1504 88.1656 36.4769C88.3111 36.8263 88.6797 37.0902 88.6797 37.0902C89.2486 36.6774 89.3379 36.2891 89.2713 35.9685C89.2534 35.8816 89.1738 35.6958 89.0875 35.4942ZM90.0628 36.1337C90.0628 36.2963 89.9446 37.2118 89.6917 37.6661C89.3379 38.3041 88.8144 38.7791 88.3584 38.7791C88.0694 38.7791 87.9361 38.6589 87.8139 38.5486C87.7567 38.4971 87.702 38.4477 87.6349 38.4138C87.6349 38.4138 87.7422 37.8598 88.2174 37.7136C88.8026 37.5352 89.6993 36.8132 90.0628 36.1337ZM88.4832 37.2586C88.5011 37.2723 88.5192 37.286 88.5377 37.3006C88.3884 37.3798 88.2327 37.4409 88.1111 37.4887L88.111 37.4887C88.0226 37.5234 87.9522 37.5511 87.9151 37.5736C87.5196 37.8175 87.3907 38.3639 87.3907 38.3639C87.0384 38.5285 86.4816 38.3806 86.4816 38.3806L86.5137 38.343L86.5137 38.343C86.7157 38.1064 87.0613 37.7015 87.4134 37.4584C87.7843 37.2015 88.2356 37.0293 88.2356 37.0293C88.3314 37.1434 88.4059 37.2 88.4832 37.2586ZM88.0741 36.8316L88.0603 36.8096C87.9709 36.6682 87.8142 36.4204 87.8504 36.0432C87.8504 36.0432 87.0695 36.5504 86.8343 36.7457C86.5992 36.9416 86.1123 37.4593 86.0031 37.6297C86.0031 37.6297 86.594 37.4978 87.048 37.3419C87.4879 37.1906 87.808 36.9944 88.0032 36.8748C88.029 36.859 88.0527 36.8445 88.0741 36.8316ZM85.7101 37.9633C86.0945 37.8801 86.5092 37.7905 86.7504 37.7022C86.6177 37.8359 86.5104 37.9702 86.4115 38.0939C86.2316 38.319 86.0794 38.5095 85.8526 38.5989C85.3106 38.812 84.8157 39.1599 84.8157 39.1599C84.5054 39.0576 83.9236 38.8917 83.9236 38.8917C84.3025 38.4656 84.589 38.255 84.9867 38.1345C85.1552 38.0833 85.4242 38.0251 85.7099 37.9633L85.71 37.9633L85.7101 37.9633ZM85.8701 40.5748L85.8761 40.5682C85.9659 40.4681 86.0733 40.3484 85.9873 40.1115C85.9242 39.9345 85.582 39.7403 85.3741 39.6376C85.0996 39.5033 84.43 39.3077 84.022 39.1886L84.0219 39.1886L84.0215 39.1885C83.9257 39.1605 83.8444 39.1367 83.786 39.119C83.786 39.119 83.6333 39.3036 83.5514 39.4988C83.515 39.5739 83.5634 39.6519 83.6962 39.6756C83.808 39.6954 83.9874 39.6846 84.1682 39.6738H84.1682C84.4103 39.6593 84.6548 39.6446 84.7428 39.7029C84.8748 39.7913 84.8657 39.9035 84.8563 40.0199L84.8563 40.0199C84.8538 40.0503 84.8513 40.0809 84.8513 40.1115C84.8513 40.1115 85.1389 39.9319 85.3197 39.9723C85.5726 40.0282 85.7253 40.1491 85.8701 40.5748ZM85.0487 39.2337L85.0316 39.2279C85.3474 39.016 85.6184 38.8785 85.8357 38.7874C86.0533 38.6973 86.3599 38.6159 86.3599 38.6159C86.5033 38.6626 86.7551 38.6874 86.7551 38.6874C86.4601 38.7532 86.1373 39.2427 86.0616 39.3865C85.9838 39.5365 85.8248 39.6003 85.8248 39.6003C85.4902 39.3822 85.1474 39.2669 85.0487 39.2337ZM87.4615 38.61L87.46 38.6108C87.4019 38.6384 87.3068 38.6835 87.0891 38.6927C87.0891 38.6927 86.2594 39.2844 86.1627 39.8725C86.0799 40.3775 86.3383 40.6186 86.4619 40.6827C86.5883 40.7472 87.1662 40.9914 87.5423 40.1944C87.5423 40.1944 86.9009 40.4111 86.727 40.0933C86.5527 39.7761 86.8344 39.3144 87.0094 39.1814C87.238 39.0054 87.6504 38.886 87.8997 38.9327C87.8997 38.9327 87.6991 38.7349 87.4615 38.61ZM82.4396 44.0632C82.2468 44.4827 82.135 44.9393 82.0339 45.372C81.4822 45.3105 81.0806 45.2189 80.6989 44.9451C80.3164 44.6708 79.6322 44.5157 79.2737 44.5157C78.9135 44.5157 78.8327 44.3609 78.7685 44.2341C79.0002 43.9629 79.2957 43.7779 79.56 43.725C80.0836 43.6171 80.3726 43.8231 80.6425 44.0155C80.7693 44.106 80.8919 44.1934 81.0326 44.2438C81.4726 44.403 81.7581 44.086 82.1765 43.0462C82.593 42.0059 83.3298 40.6072 83.7661 40.0883C83.9037 39.9251 84.3248 39.9199 84.4331 39.9186L84.4491 39.9184C84.5242 39.9153 84.5941 39.9457 84.5999 40.0292C84.6041 40.1113 84.6041 40.5746 84.6041 40.5746C84.7555 40.4719 85.0974 40.245 85.2686 40.2232C85.4407 40.2006 85.828 40.6582 85.6469 40.6939C83.808 41.0626 82.8877 43.0808 82.4863 43.961L82.4396 44.0632ZM89.6792 38.6433C89.7212 38.9776 89.8791 39.2936 90.0542 39.6201C90.0542 39.6201 89.4713 42.3867 87.3628 42.6003C87.3628 42.6003 87.4054 42.0272 88.0299 41.59C88.6552 41.1533 89.5884 40.4758 89.5204 39.4477C89.5204 39.4477 89.3538 39.4829 89.0548 39.8682C89.0163 39.9175 88.9719 39.9788 88.9217 40.0481L88.9217 40.0482L88.9215 40.0484L88.9214 40.0486L88.9214 40.0486C88.5795 40.5209 87.9663 41.3682 87.0804 41.3758C87.0804 41.3758 87.23 40.8534 87.6799 40.5523C88.1309 40.2531 88.705 39.8682 88.9644 39.4048C89.2211 38.9423 89.4969 38.7289 89.6792 38.6433ZM89.9668 50.5647L88.6844 48.7177L89.0476 48.1507L89.3748 48.6224L89.3756 48.6236L89.384 48.6358C89.6397 49.0043 89.829 49.2772 89.9133 49.3997C90.0581 49.1434 90.3044 48.6872 90.5423 48.2465L90.5427 48.2456L90.594 48.1507L90.9384 48.785L89.9668 50.5647ZM86.0486 43.8281L86.0399 43.8156L86.0394 43.8149C85.6998 43.325 85.462 42.982 85.4054 42.9007L85.8908 42.5418L84.3599 41.9408L84.389 43.6525L84.9065 43.2706L87.9941 47.722L88.3558 47.1546C87.5622 46.0112 86.6491 44.6942 86.0486 43.8281ZM79.4726 37.5966C78.827 36.9846 78.1867 36.62 77.8087 37.0432C77.4306 37.4655 77.8382 38.0921 78.4842 38.7033C79.131 39.314 79.8008 39.646 80.1492 39.256C80.5272 38.8327 80.1197 38.2069 79.4726 37.5966ZM78.8516 44.5612C78.8343 44.5474 78.8181 44.5325 78.8018 44.5175L78.7913 44.5078C78.448 44.1981 78.2521 43.7223 78.2521 43.2025C78.2521 42.2022 79.0429 41.3889 80.0152 41.3889C80.9874 41.3889 81.7771 42.2022 81.7771 43.2025C81.7771 43.3381 81.7514 43.5586 81.7514 43.5586C81.8014 43.4625 81.9313 43.1612 82.0371 42.9157L82.0371 42.9155C82.1023 42.7645 82.1582 42.6346 82.1809 42.5867C81.918 41.6101 81.0464 40.8921 80.0152 40.8921C79.1283 40.8921 78.3594 41.4229 77.9951 42.1925C78.1338 41.2781 78.576 40.4556 78.8902 40.1505C79.2652 39.7867 79.9032 39.6704 79.9032 39.6704C79.4856 39.7393 78.9333 39.4744 78.3161 38.8917C77.7491 38.3554 77.4473 37.8857 77.4126 37.4895L77.41 37.4507C77.4106 37.4635 77.4114 37.4765 77.4126 37.4895C77.4476 38.0364 77.426 38.3519 77.2742 38.8042C77.2392 38.9074 77.1945 39.0246 77.145 39.1544C76.8908 39.8209 76.5111 40.8161 76.6845 41.9169C76.8005 42.6396 77.3084 43.7149 78.1606 44.593C78.3406 44.7913 78.4105 45.0821 78.431 45.2348C78.431 45.2348 79.6885 45.2348 79.9861 45.2615C79.9861 45.2615 80.2844 45.2348 80.2794 45.0424C80.2744 44.8514 80.1089 44.8025 79.9595 44.8025L79.9362 44.8025C79.7542 44.8032 79.1709 44.8056 78.8516 44.5612ZM83.4191 45.5806C84.1844 45.4599 84.99 45.3017 85.7974 45.0005L86.0918 45.4228C85.2084 45.7656 84.3292 45.9408 83.4942 46.0723C82.9911 46.1524 82.4986 46.1816 82.0241 46.162C82.0241 46.0368 81.9304 45.9249 81.9304 45.9249C81.9758 45.8475 81.9769 45.7415 81.969 45.6622C82.4355 45.6859 82.9219 45.6591 83.4191 45.5806ZM87.1219 44.9369C88.193 44.334 89.24 43.406 90.1821 41.9227L90.3514 41.6315C90.0946 41.7486 89.7628 41.6681 89.7628 41.6681L89.7566 41.6784L89.7354 41.7125L89.7352 41.7127C89.7177 41.7406 89.6973 41.7731 89.6849 41.7952C88.8045 43.1321 87.8316 43.974 86.8351 44.5241L87.1219 44.9369ZM79.1555 45.4426C79.4383 45.3975 79.9078 45.3851 80.0559 45.41C80.2793 45.4481 80.231 45.6339 80.1138 45.7653C79.9969 45.8972 79.273 46.2963 79.1446 46.3456L79.143 46.3462C79.0149 46.3955 78.788 46.4827 78.6912 46.3278L78.6831 46.3147C78.5317 46.0701 78.424 45.8962 78.4588 45.7327C78.4948 45.5578 78.8475 45.4927 79.1555 45.4426ZM80.7952 45.9026C80.7174 45.8513 80.5285 45.777 80.3315 45.8536C80.1356 45.9299 79.4213 46.3628 79.3736 46.5658C79.326 46.7676 79.4228 46.8714 79.5339 46.9162C79.6444 46.9611 79.7799 47.004 79.8775 47.0137C80.0559 47.0285 80.231 46.9215 80.3214 46.8065L80.3473 46.7739C80.464 46.6275 80.7507 46.2676 80.7952 46.1818C80.8425 46.0892 80.8701 45.9517 80.7952 45.9026ZM80.4554 46.8969C80.4899 46.8379 80.7797 46.4775 80.8819 46.3582C81.2095 45.9818 81.51 45.9188 81.7041 46.0592C81.8983 46.1988 81.7089 46.5801 81.4274 46.7784C81.1455 46.9762 80.6588 47.0289 80.5655 47.039L80.5639 47.0392C80.4724 47.0489 80.4219 46.9557 80.4554 46.8969ZM81.0394 45.257L81.0323 45.2551C80.9292 45.2291 80.5745 45.1393 80.4947 45.2626C80.3945 45.4201 80.4663 45.5889 80.7548 45.732C81.0424 45.8743 81.5868 45.9877 81.6934 45.8342C81.8007 45.6794 81.6519 45.4193 81.0394 45.257ZM93.0756 35.4957C93.1598 35.2986 93.2504 35.0863 93.2968 34.9367C93.4317 35.1784 93.7398 35.5457 93.8917 35.7268L93.9133 35.7526C94.0539 35.9214 94.1349 36.1504 93.9991 36.4769C93.8521 36.8263 93.4839 37.0902 93.4839 37.0902C92.9157 36.6774 92.8261 36.2891 92.8923 35.9685C92.9106 35.8819 92.9897 35.6967 93.0756 35.4957ZM92.1003 36.1337C92.1003 36.2963 92.2186 37.2118 92.4724 37.6661C92.826 38.3041 93.3481 38.7791 93.8059 38.7791C94.0952 38.7791 94.2283 38.6587 94.3503 38.5483C94.4072 38.4968 94.4616 38.4476 94.5283 38.4138C94.5283 38.4138 94.4213 37.8598 93.9446 37.7136C93.3617 37.5352 92.4646 36.8132 92.1003 36.1337ZM93.6772 37.2615C93.6605 37.2742 93.6437 37.287 93.6264 37.3006C93.7747 37.3794 93.9297 37.4404 94.051 37.4881L94.0511 37.4881L94.0512 37.4881C94.1402 37.5231 94.2111 37.551 94.2478 37.5736C94.6435 37.8175 94.7728 38.3639 94.7728 38.3639C95.1259 38.5285 95.6815 38.3806 95.6815 38.3806L95.6477 38.341L95.6477 38.341L95.6477 38.341L95.6476 38.3409C95.4453 38.1041 95.1008 37.7008 94.7498 37.4584C94.3797 37.2015 93.928 37.0293 93.928 37.0293C93.8303 37.1453 93.7558 37.2018 93.6772 37.2615ZM94.0902 36.8316L94.1043 36.8092C94.1938 36.6678 94.3505 36.4201 94.3139 36.0432C94.3139 36.0432 95.0957 36.5504 95.33 36.7457C95.5652 36.9416 96.0527 37.4593 96.1621 37.6297C96.1621 37.6297 95.5702 37.4978 95.1164 37.3419C94.6804 37.1923 94.3639 36.9986 94.1678 36.8787L94.1678 36.8787C94.1394 36.8613 94.1135 36.8455 94.0902 36.8316ZM96.4552 37.9637C96.0704 37.8805 95.6551 37.7906 95.4135 37.7022C95.5475 37.8367 95.6554 37.9718 95.7547 38.0962C95.9336 38.3203 96.0849 38.5098 96.3117 38.5989C96.8533 38.812 97.3485 39.1599 97.3485 39.1599C97.6588 39.0576 98.2406 38.8917 98.2406 38.8917C97.8612 38.4656 97.5738 38.255 97.177 38.1345C97.0083 38.0834 96.7401 38.0254 96.4552 37.9637ZM96.2929 40.5748L96.2854 40.5663C96.1974 40.4665 96.0919 40.3469 96.1767 40.1115C96.2396 39.9345 96.5827 39.7403 96.7902 39.6376C97.0633 39.5042 97.7255 39.3105 98.1335 39.1912C98.2331 39.162 98.3176 39.1373 98.3776 39.119C98.3776 39.119 98.5314 39.3036 98.6122 39.4988C98.6486 39.5739 98.601 39.6519 98.4683 39.6756C98.3562 39.6954 98.1764 39.6846 97.9953 39.6738C97.7531 39.6592 97.5087 39.6446 97.4215 39.7029C97.2898 39.7913 97.2989 39.9034 97.3084 40.0196C97.3109 40.0501 97.3134 40.0808 97.3134 40.1115C97.3134 40.1115 97.0258 39.9319 96.8436 39.9723C96.5914 40.0282 96.4379 40.1491 96.2929 40.5748ZM97.1158 39.2336L97.1327 39.2279C96.8168 39.016 96.5461 38.8785 96.3283 38.7874C96.1106 38.6973 95.8037 38.6159 95.8037 38.6159C95.6596 38.6626 95.4098 38.6874 95.4098 38.6874C95.7042 38.7532 96.027 39.2427 96.1027 39.3865C96.1805 39.5365 96.3384 39.6003 96.3384 39.6003C96.6745 39.3822 97.0172 39.2668 97.1158 39.2336ZM94.703 38.61L94.7035 38.6103C94.7606 38.6378 94.8551 38.6835 95.0737 38.6927C95.0737 38.6927 95.9042 39.2844 96.0014 39.8725C96.0854 40.3775 95.8275 40.6186 95.702 40.6827C95.5753 40.7472 94.9981 40.9914 94.622 40.1944C94.622 40.1944 95.2619 40.4111 95.4373 40.0933C95.6124 39.7761 95.33 39.3144 95.1549 39.1814C94.9263 39.0054 94.5146 38.886 94.2624 38.9327C94.2624 38.9327 94.4644 38.7349 94.703 38.61ZM99.7232 44.0632C99.9163 44.4827 100.028 44.9393 100.129 45.372C100.682 45.3105 101.082 45.2189 101.465 44.9451C101.848 44.6708 102.531 44.5157 102.891 44.5157C103.25 44.5157 103.332 44.3609 103.396 44.2341C103.163 43.9629 102.869 43.7779 102.604 43.725C102.081 43.6171 101.792 43.8229 101.522 44.0153L101.522 44.0153L101.522 44.0154C101.395 44.1058 101.272 44.1933 101.131 44.2438C100.692 44.403 100.406 44.086 99.9877 43.0462C99.5708 42.0059 98.8344 40.6072 98.3982 40.0883C98.2607 39.9251 97.8394 39.9199 97.7309 39.9186L97.7149 39.9184C97.64 39.9153 97.569 39.9457 97.5644 40.0292C97.5601 40.1113 97.5601 40.5746 97.5601 40.5746C97.4087 40.4719 97.068 40.245 96.8946 40.2232C96.7241 40.2006 96.3362 40.6582 96.5177 40.6939C98.3596 41.0632 99.2796 43.0874 99.6786 43.9653L99.7232 44.0632ZM92.4844 38.6433C92.444 38.9776 92.2844 39.2936 92.1101 39.6201C92.1101 39.6201 92.693 42.3867 94.8004 42.6003C94.8004 42.6003 94.7589 42.0272 94.1348 41.59C93.5095 41.1533 92.577 40.4758 92.6429 39.4477C92.6429 39.4477 92.8094 39.4829 93.1096 39.8682C93.1482 39.9177 93.1927 39.9793 93.2431 40.049L93.2433 40.0492L93.2433 40.0492C93.5851 40.5216 94.1975 41.3682 95.0828 41.3758C95.0828 41.3758 94.9332 40.8534 94.484 40.5523C94.0343 40.2531 93.4589 39.8682 93.201 39.4048C92.9419 38.9423 92.6674 38.7289 92.4844 38.6433ZM92.3554 43.1797C92.0066 42.85 91.2082 41.6935 91.0861 41.3242H91.0793C90.9561 41.6935 90.1577 42.85 89.8081 43.1797C89.6276 43.3503 89.3138 43.6657 88.9901 43.9913L88.99 43.9913C88.6866 44.2964 88.3744 44.6103 88.1547 44.8221C88.1547 44.8221 89.4486 44.4917 90.1763 43.8122C90.1763 43.8122 90.6941 44.1231 91.0713 44.1231H91.0918C91.4691 44.1231 91.988 43.8122 91.988 43.8122C92.7146 44.4917 94.0084 44.8221 94.0084 44.8221C93.792 44.6129 93.4847 44.304 93.1846 44.0024L93.1846 44.0023L93.1846 44.0023L93.1845 44.0023C92.8568 43.6729 92.5378 43.3522 92.3554 43.1797ZM91.09 44.3944C91.3757 44.3944 91.6485 44.277 91.7987 44.2096C91.6485 44.5401 91.3578 45.0544 91.0842 45.2682H91.0782C90.8037 45.0544 90.5161 44.5401 90.3645 44.2096C90.5161 44.277 90.7845 44.3944 91.0713 44.3944H91.09ZM97.2589 43.2706L92.1964 50.5646L89.9037 46.3622C89.5333 46.9372 88.4265 48.656 88.1461 49.0928L88.6639 49.4463L87.1167 50.0784L87.1247 48.3915L87.6338 48.7417L89.6742 45.5719L89.9566 45.1292L92.2492 49.3996C92.7255 48.7138 96.5098 43.2594 96.7577 42.9007L96.2731 42.5418L97.8048 41.9408L97.7752 43.6525L97.2589 43.2706ZM93.1213 47.6989L92.9063 47.3653C92.6422 46.9556 92.3991 46.5785 92.261 46.3623C92.138 46.5972 91.8927 47.0481 91.6178 47.5534L91.6174 47.5542L91.6173 47.5544L91.5825 47.6183L91.2208 46.9528L92.2066 45.1292L92.4901 45.572L93.5043 47.1476L93.1213 47.6989ZM94.5294 48.7418L94.164 48.1737L93.781 48.7252C93.8827 48.8815 93.9644 49.0105 94.0164 49.093L93.4994 49.4464L95.0485 50.0785L95.0397 48.3917L94.5294 48.7418ZM104.356 37.0432C103.977 36.62 103.338 36.9846 102.69 37.5966C102.043 38.2069 101.637 38.8327 102.014 39.256C102.363 39.646 103.033 39.314 103.68 38.7033C104.326 38.0921 104.733 37.4655 104.356 37.0432ZM103.364 44.5151C103.348 44.5309 103.331 44.5467 103.313 44.5612C102.993 44.8055 102.41 44.8032 102.228 44.8025L102.204 44.8025C102.057 44.8025 101.891 44.8514 101.885 45.0424C101.88 45.2348 102.179 45.2615 102.179 45.2615C102.477 45.2348 103.733 45.2348 103.733 45.2348C103.754 45.0821 103.823 44.7913 104.005 44.593C104.855 43.7149 105.365 42.6396 105.479 41.9169C105.653 40.8176 105.274 39.8235 105.021 39.1571C104.971 39.0263 104.926 38.9081 104.891 38.8042C104.738 38.3512 104.718 38.0354 104.752 37.487C104.753 37.4748 104.754 37.4627 104.754 37.4507L104.752 37.487C104.718 37.8837 104.416 38.3542 103.848 38.8917C103.231 39.4744 102.679 39.7393 102.26 39.6704C102.26 39.6704 102.9 39.7867 103.275 40.1505C103.587 40.4556 104.03 41.2781 104.17 42.1925C103.805 41.4229 103.037 40.8921 102.149 40.8921C101.117 40.8921 100.246 41.6101 99.9844 42.5867C100.007 42.6343 100.062 42.7632 100.127 42.9134L100.127 42.9135C100.233 43.1594 100.364 43.4622 100.413 43.5586C100.413 43.5586 100.387 43.3381 100.387 43.2025C100.387 42.2022 101.177 41.3889 102.149 41.3889C103.122 41.3889 103.912 42.2022 103.912 43.2025C103.912 43.7223 103.716 44.1981 103.372 44.5078L103.364 44.5151ZM95.0396 44.9354C93.9695 44.3318 92.9247 43.4045 91.9809 41.9227L91.8127 41.6315C92.0685 41.7486 92.4019 41.6681 92.4019 41.6681L92.4084 41.6788C92.4267 41.7085 92.4602 41.763 92.4793 41.7952C93.3576 43.1302 94.3312 43.9728 95.327 44.5234L95.0396 44.9354ZM98.7441 45.5806C97.9787 45.46 97.1724 45.3018 96.3628 44.999L96.0725 45.4224C96.9548 45.7656 97.8361 45.9409 98.6701 46.0724C99.1732 46.1524 99.6646 46.1816 100.14 46.1621C100.14 46.0369 100.234 45.925 100.234 45.925C100.189 45.8476 100.187 45.7415 100.195 45.6622C99.7282 45.6859 99.2412 45.6592 98.7441 45.5806ZM102.109 45.41C102.257 45.3851 102.727 45.3975 103.009 45.4426C103.316 45.4927 103.67 45.5578 103.706 45.7327C103.742 45.8975 103.632 46.0728 103.477 46.3206L103.472 46.3278C103.375 46.4824 103.149 46.3958 103.02 46.3465L103.018 46.3456C102.891 46.2963 102.167 45.8972 102.049 45.7653C101.933 45.6339 101.885 45.4481 102.109 45.41ZM101.833 45.8536C101.636 45.777 101.447 45.8513 101.368 45.9026C101.295 45.9517 101.321 46.0892 101.368 46.1818C101.409 46.2586 101.643 46.5548 101.775 46.7212L101.775 46.7214L101.775 46.7214L101.809 46.7636L101.842 46.8065C101.933 46.9215 102.11 47.0285 102.287 47.0137C102.383 47.004 102.52 46.9611 102.63 46.9162C102.741 46.8714 102.837 46.7676 102.79 46.5658C102.742 46.3628 102.028 45.9299 101.833 45.8536ZM101.282 46.3582C101.385 46.4775 101.674 46.8379 101.709 46.8969C101.742 46.9557 101.692 47.0489 101.601 47.0392L101.601 47.0392C101.51 47.0294 101.019 46.9771 100.738 46.7784C100.455 46.5801 100.266 46.1988 100.461 46.0592C100.654 45.9188 100.955 45.9818 101.282 46.3582ZM101.131 45.2551L101.124 45.257C100.513 45.4193 100.364 45.6794 100.47 45.8342C100.579 45.9877 101.122 45.8743 101.411 45.732C101.699 45.5889 101.771 45.4201 101.67 45.2626C101.59 45.1395 101.235 45.2289 101.131 45.2551Z" fill="#0055A6"/>
</svg>
